<?xml version="1.0" encoding="UTF-8"?>
<svg width="500px" height="500px" viewBox="0 0 500 500" version="1.1" xmlns="http://www.w3.org/2000/svg" xmlns:xlink="http://www.w3.org/1999/xlink">
    <title>ARKK</title>
    <g id="ARKK" stroke="none" stroke-width="1" fill="none" fill-rule="evenodd">
        <rect fill="#FFFFFF" x="0" y="0" width="500" height="500"></rect>
        <g id="ark-logo-1-1" fill="#0A0A23" fill-rule="nonzero">
            <path d="M493,246.5 C493,110.59275 382.43033,0 246.5,0 C110.56967,0 0,110.56967 0,246.5 C0,382.43033 110.56967,493 246.5,493 C382.43033,493 493,382.43033 493,246.5 Z M225.541778,14.973483 L39.9559258,353.0567 C22.8706572,320.137463 13.9633648,283.588956 13.9873575,246.5 C13.9873575,125.359862 107.129844,25.6245371 225.541778,14.9963703 L225.541778,14.973483 Z M239.483794,242.384134 L59.6186114,346.246288 L239.483794,18.6308341 L239.483794,242.384134 Z M239.483794,478.794491 C201.066799,477.627047 163.538369,466.953683 130.257551,447.730279 C96.9757715,428.506876 68.9794183,401.33158 48.7726306,368.638331 L239.483794,258.572567 L239.483794,478.794491 Z M301.704537,125.760871 C301.645876,145.993046 297.32037,165.98577 289.008821,184.43216 C280.697271,202.878549 268.5872,219.363171 253.471008,232.810898 L253.471008,18.6881485 C268.694905,32.052597 280.8771,48.5248131 289.197304,66.994763 C297.517509,85.4647129 301.782431,105.503693 301.704537,125.760871 Z M444.135628,124.235692 L288.21065,214.237571 C306.012734,188.159519 315.570583,157.33572 315.646553,125.760871 C315.724447,105.237315 311.74225,84.9007046 303.928836,65.922426 C296.11446,46.9441474 284.624654,29.6989562 270.118148,15.1798533 C305.524215,18.8485519 339.616666,30.5870409 369.775965,49.492811 C399.935263,68.3985811 425.358431,93.968208 444.089469,124.235692 L444.135628,124.235692 Z M451.164335,356.645582 L260.407397,246.5 L451.164335,136.319799 C469.420318,170.168952 478.978167,208.024344 478.978167,246.48269 C478.978167,284.941037 469.420318,322.796428 451.164335,356.645582 Z M444.124088,368.729688 C423.911146,401.397934 395.918447,428.549189 362.649169,447.755282 C329.37893,466.962338 291.868771,477.626086 253.471008,478.794491 L253.471008,258.595646 L444.124088,368.729688 Z" id="path2"></path>
        </g>
    </g>
</svg>