<?xml version="1.0" encoding="UTF-8"?>
<svg width="500px" height="500px" viewBox="0 0 500 500" version="1.1" xmlns="http://www.w3.org/2000/svg" xmlns:xlink="http://www.w3.org/1999/xlink">
    <title>BIDU</title>
    <defs>
        <polygon id="path-1" points="0.0368393782 0.268636855 473.59696 0.268636855 473.59696 499.387477 0.0368393782 499.387477"></polygon>
    </defs>
    <g id="BIDU" stroke="none" stroke-width="1" fill="none" fill-rule="evenodd">
        <rect fill="#FFFFFF" x="0" y="0" width="500" height="500"></rect>
        <g id="baidu-(1)" transform="translate(13.000000, 0.000000)">
            <mask id="mask-2" fill="white">
                <use xlink:href="#path-1"></use>
            </mask>
            <g id="Clip-2"></g>
            <path d="M236.798611,188.469975 C266.725694,187.859069 294.964306,206.03799 311.525448,232.965686 C336.207218,273.73223 368.65043,295.566176 380.361668,306.609681 C394.98506,320.413603 456.92372,353.221814 443.487785,425.037377 C430.157456,495.849877 362.937256,499.004902 362.937256,499.004902 C362.937256,499.004902 331.465376,502.338848 277.324383,489.322917 C264.00572,486.426471 250.426111,484.913603 236.798611,484.806373 C223.168655,484.911765 209.588433,486.42402 196.272839,489.322917 C142.05694,502.338848 110.65751,499.004902 110.65751,499.004902 C110.65751,499.004902 43.4735363,495.849877 30.1094378,425.037377 C16.5992098,353.221814 78.6097073,320.413603 93.2330984,306.609681 C104.944337,295.566176 137.423161,273.73223 162.069319,232.965686 C178.632917,206.074142 206.871528,187.859069 236.798611,188.469975 Z M218.978176,271.473039 L183.877617,271.473039 L183.877617,325.755515 L154.05614,325.755515 C116.262008,325.755515 90.7531943,353.365196 90.7531943,388.502451 C90.7531943,426.757966 114.717824,453.613358 156.356145,453.613358 L219.014402,453.613358 L219.014402,271.473039 L218.978176,271.473039 Z M360.637251,324.645221 L326.508023,324.645221 L326.57986,419.658701 L291.407464,419.658701 C284.939083,419.658701 279.981731,416.109069 279.981731,403.703431 L279.981731,324.716912 L245.99372,324.716912 L245.99372,414.675858 C245.99372,437.837623 259.288438,453.613358 288.567762,453.613358 L360.637251,453.613358 L360.637251,324.645221 Z M168.319733,359.602941 L183.913842,359.63848 L183.913842,419.731005 L154.73951,419.731005 C136.955915,419.731005 125.640085,405.604167 125.640085,389.720588 C125.640085,373.908701 136.310611,359.602941 153.842472,359.602941 L168.319733,359.602941 Z M54.7555959,121.170956 C90.0716658,117.980392 111.52078,154.302083 114.861497,186.17402 C118.667619,222.208946 105.843832,259.677696 68.9467383,264.768382 C26.1571865,270.682598 0.25419171,233.968137 0.00245595855,196.715686 C-0.213668394,157.492647 20.7675855,124.219975 54.7193705,121.170956 L54.7555959,121.170956 Z M418.911008,121.170956 C452.827181,124.219975 473.844047,157.528186 473.594767,196.715686 C473.378642,233.968137 447.473806,270.682598 404.722321,264.768382 C367.822772,259.713235 354.998984,222.208946 358.807562,186.17402 C362.14828,154.302083 383.594938,117.980392 418.911008,121.170956 Z M162.177381,0.34252451 C197.169878,-1.48590686 219.302363,30.8553922 220.271238,71.2628676 C221.09644,107.905637 208.163977,145.230392 171.696676,148.708333 C131.170904,152.545343 103.327702,117.980392 104.728212,74.6691176 C105.95128,33.1482843 131.062842,2.02757353 162.177381,0.34252451 Z M311.417386,0.34252451 C342.495699,2.02757353 367.645329,33.1482843 368.866554,74.6691176 C370.267065,117.980392 342.388251,152.545343 301.862479,148.672181 C265.43079,145.230392 252.42649,107.905637 253.323528,71.2273284 C254.258635,30.8915441 276.496725,-1.45036765 311.417386,0.378676471 L311.417386,0.34252451 Z" id="Fill-1" fill="#2932E1" mask="url(#mask-2)"></path>
        </g>
    </g>
</svg>