<?xml version="1.0" encoding="UTF-8"?>
<svg width="500px" height="500px" viewBox="0 0 500 500" version="1.1" xmlns="http://www.w3.org/2000/svg" xmlns:xlink="http://www.w3.org/1999/xlink">
    <title>BIDU</title>
    <defs>
        <polygon id="path-1" points="0.0279979275 0.20416401 359.93369 0.20416401 359.93369 379.534483 0.0279979275 379.534483"></polygon>
    </defs>
    <g id="BIDU" stroke="none" stroke-width="1" fill="none" fill-rule="evenodd">
        <rect fill="#FFFFFF" x="0" y="0" width="500" height="500"></rect>
        <g id="baidu-(1)" transform="translate(70.000000, 60.000000)">
            <mask id="mask-2" fill="white">
                <use xlink:href="#path-1"></use>
            </mask>
            <g id="Clip-2"></g>
            <path d="M179.966945,143.237181 C202.711528,142.772892 224.172872,156.588873 236.759341,177.053922 C255.517485,208.036495 280.174327,224.630294 289.074868,233.023358 C300.188645,243.514338 347.262027,268.448578 337.050717,323.028407 C326.919667,376.845907 275.832315,379.243725 275.832315,379.243725 C275.832315,379.243725 251.913685,381.777525 210.766531,371.885417 C200.644347,369.684118 190.323845,368.534338 179.966945,368.452843 C169.608178,368.532941 159.287209,369.682255 149.167358,371.885417 C107.963275,381.777525 84.0997079,379.243725 84.0997079,379.243725 C84.0997079,379.243725 33.0398876,376.845907 22.8831727,323.028407 C12.6153995,268.448578 59.7433775,243.514338 70.8571548,233.023358 C79.757696,224.630294 104.441602,208.036495 123.172682,177.053922 C135.761017,156.616348 157.222362,142.772892 179.966945,143.237181 Z M166.423414,206.31951 L139.746989,206.31951 L139.746989,247.574191 L117.082666,247.574191 C88.3591259,247.574191 68.9724277,268.557549 68.9724277,295.261863 C68.9724277,324.336054 87.1855461,344.746152 118.83067,344.746152 L166.450945,344.746152 L166.450945,206.31951 L166.423414,206.31951 Z M274.084311,246.730368 L248.146098,246.730368 L248.200694,318.940613 L221.469672,318.940613 C216.553703,318.940613 212.786115,316.242892 212.786115,306.814608 L212.786115,246.784853 L186.955227,246.784853 L186.955227,315.153652 C186.955227,332.756593 197.059213,344.746152 219.311499,344.746152 L274.084311,344.746152 L274.084311,246.730368 Z M127.922997,273.298235 L139.77452,273.325245 L139.77452,318.995564 L117.602028,318.995564 C104.086495,318.995564 95.486465,308.259167 95.486465,296.187647 C95.486465,284.170613 103.596065,273.298235 116.920278,273.298235 L127.922997,273.298235 Z M41.6142528,92.0899265 C68.454466,89.665098 84.7557926,117.269583 87.294738,141.492255 C90.1873906,168.878799 80.441312,197.355049 52.3995211,201.223971 C19.8794618,205.718775 0.193185699,177.815784 0.00186652849,149.503922 C-0.162387979,119.694412 15.783365,94.4071814 41.5867216,92.0899265 L41.6142528,92.0899265 Z M318.372366,92.0899265 C344.148658,94.4071814 360.121475,119.721422 359.932023,149.503922 C359.767768,177.815784 340.080092,205.718775 307.588964,201.223971 C279.545307,197.382059 269.799228,168.878799 272.693747,141.492255 C275.232693,117.269583 291.532153,89.665098 318.372366,92.0899265 Z M123.254809,0.260318627 C149.849107,-1.12928922 166.669796,23.450098 167.406141,54.1597794 C168.033295,82.0082843 158.204622,110.375098 130.489474,113.018333 C99.6898872,115.934461 78.5290536,89.665098 79.5934415,56.7485294 C80.5229726,25.1926961 99.6077599,1.54095588 123.254809,0.260318627 Z M236.677213,0.260318627 C260.296732,1.54095588 279.41045,25.1926961 280.338581,56.7485294 C281.402969,89.665098 260.215071,115.934461 229.415484,112.990858 C201.727401,110.375098 191.844132,82.0082843 192.525882,54.1327696 C193.236562,23.4775735 210.137511,-1.10227941 236.677213,0.287794118 L236.677213,0.260318627 Z" id="Fill-1" fill="#2932E1" mask="url(#mask-2)"></path>
        </g>
    </g>
</svg>