<?xml version="1.0" encoding="UTF-8"?>
<svg width="500px" height="500px" viewBox="0 0 500 500" version="1.1" xmlns="http://www.w3.org/2000/svg" xmlns:xlink="http://www.w3.org/1999/xlink">
    <title>PACB</title>
    <g id="PACB" stroke="none" stroke-width="1" fill="none" fill-rule="evenodd">
        <rect fill="#FFFFFF" x="0" y="0" width="500" height="500"></rect>
        <g id="PACB-" transform="translate(1.000000, 1.000000)" fill="#C6223A" fill-rule="nonzero">
            <g id="编组" transform="translate(0.137097, 0.000000)">
                <path d="M87.6926612,234.54535 C87.6926612,229.104552 92.1369547,224.65299 97.5688691,224.65299 C103.000783,224.65299 107.445077,229.104552 107.445077,234.54535 L107.445077,242.129493 C154.686271,249.054145 195.343327,215.420121 221.59758,185.248423 C203.738104,158.868797 173.61567,141.557167 139.542753,141.557167 C118.226604,141.557167 97.8157743,148.23451 80.6970139,160.929705 C76.3350221,164.144722 70.1623922,163.237922 66.9526246,158.868797 C63.742857,154.499671 64.6481761,148.316946 69.0101679,145.101929 C89.5032993,129.933644 113.946914,121.854883 139.542753,121.854883 C178.306869,121.854883 212.708993,140.650367 234.43665,169.503083 C246.041194,154.087489 252.707635,142.299094 252.872238,141.886912 L253.942161,139.990876 L255.670497,138.754331 C264.805989,131.994552 274.764499,126.718627 285.216819,122.926555 L285.216819,2.73438226 C273.283068,1.00321928 261.02011,0.0139832833 248.592548,0.0139832833 C111.230957,0.096419616 0.123617863,111.467905 0.123617863,248.806836 C0.123617863,324.813134 34.1965351,392.740673 87.7749629,438.410401 L87.7749629,234.54535 L87.6926612,234.54535 Z" id="路径"></path>
                <path d="M107.445077,262.079085 L107.445077,336.189348 C108.926508,335.942039 110.407939,335.859603 111.889371,336.354221 C120.777958,338.909747 130.078053,340.228729 139.460451,340.228729 C194.108801,340.228729 238.634039,295.713109 238.634039,240.892948 C238.634039,227.868007 236.082685,215.420121 231.473788,204.043907 C202.58588,235.534586 159.37747,268.344246 107.445077,262.079085 Z" id="路径"></path>
                <path d="M304.72233,6.52645357 L304.72233,117.403321 C311.717977,116.166776 318.795926,115.424849 326.038478,115.424849 C391.550657,115.424849 444.88218,168.843593 444.88218,234.462914 C444.88218,300.082235 391.550657,353.500978 326.038478,353.500978 C314.845443,353.500978 303.734709,351.934688 293.035484,348.802107 C287.768173,347.318253 284.80531,341.795019 286.286742,336.60153 C287.768173,331.408041 293.282389,328.357897 298.467398,329.841751 C307.355985,332.397277 316.656081,333.716258 326.038478,333.716258 C380.686829,333.716258 425.212066,289.200639 425.212066,234.380477 C425.212066,179.560316 380.76913,135.044696 326.038478,135.044696 C318.795926,135.044696 311.635675,135.86906 304.72233,137.352914 L304.72233,283.759841 C304.72233,289.200639 300.278036,293.652201 294.846122,293.652201 C289.414207,293.652201 284.969914,289.200639 284.969914,283.759841 L284.969914,144.112693 C279.373396,146.668219 273.941482,149.718364 268.756473,153.345562 C265.875912,158.374179 257.72804,171.728864 245.382781,187.391768 C253.530652,203.466853 258.139549,221.602846 258.139549,240.810511 C258.139549,306.429832 204.808026,359.848576 139.295847,359.848576 C128.432019,359.848576 117.650492,358.364722 107.280474,355.47945 L107.280474,453.578686 C147.361417,481.277294 195.919439,497.599688 248.263341,497.599688 C385.378027,497.599688 496.567915,386.228202 496.567915,248.889272 C496.732271,130.840443 414.759746,32.0817167 304.72233,6.52645357 Z" id="路径"></path>
            </g>
        </g>
    </g>
</svg>