<?xml version="1.0" encoding="UTF-8"?>
<svg width="500px" height="500px" viewBox="0 0 500 500" version="1.1" xmlns="http://www.w3.org/2000/svg" xmlns:xlink="http://www.w3.org/1999/xlink">
    <title>TSLA</title>
    <g id="TSLA" stroke="none" stroke-width="1" fill="none" fill-rule="evenodd">
        <rect fill="#FFFFFF" x="0" y="0" width="500" height="500"></rect>
        <g id="tesila-(1)" transform="translate(55.000000, 60.000000)" fill="#CC0200">
            <path d="M368.33058,69.3956853 C366.916221,68.5419753 366.188023,67.9392371 365.345916,67.6226473 C323.52266,52.0529255 279.760931,42.2677315 235.279141,38.5363018 C232.754856,38.3144184 229.248114,40.0874563 227.502879,42.0668188 C221.789846,48.5278204 216.535157,55.4325888 211.363187,62.3508867 C205.825083,69.7603047 200.556834,77.3760471 194.685143,85.5782924 C192.717516,83.1544866 191.414353,81.5877732 190.161364,79.9892655 C180.925994,68.2091502 171.76724,56.3492109 162.420674,44.6489194 C158.787141,40.1036917 154.42202,37.4613849 147.885187,38.092535 C113.621224,41.4194333 80.2156403,48.5122615 47.7626807,59.9433164 C37.764533,63.4738333 28.0369171,67.7335891 17.0875011,72.1042865 C32.0203104,88.2233051 46.5259642,101.855606 67.2029961,109.693232 C68.5990484,98.3568831 74.5026068,91.1828781 83.960369,87.0814172 C100.910979,79.7511468 118.749123,80.3220907 136.583876,82.0477754 C138.189438,82.2060703 140.393017,85.3719679 140.774067,87.4142424 C144.821195,109.503143 148.629658,131.652249 152.358792,153.804061 C158.151154,188.193285 163.847915,222.585215 169.577221,256.974439 C174.815638,288.372295 180.004558,319.770152 185.27213,351.168009 C186.893286,360.794231 188.702255,370.389336 190.431218,380 C192.303921,377.354987 192.844306,374.852711 193.286378,372.352463 C200.66803,331.122059 207.999508,289.87542 215.425909,248.645016 C224.756202,196.823738 234.214643,145.018019 243.547649,93.2095937 C245.624437,81.683156 245.484086,81.0012704 256.957615,80.8138871 C281.776698,80.4174735 307.279229,79.2600267 319.007017,109.027581 C340.510561,101.8874 358.428034,90.9609947 368.33058,69.3956853 Z" id="路径"></path>
            <path d="M18.5198095,59.039211 C28.0947461,55.2247488 37.793663,51.7286081 47.6016554,48.5595562 C88.9365477,35.3242627 131.700262,27.0155333 174.998514,23.8093888 C219.588058,20.3658521 263.717588,23.3352787 306.769912,35.3006584 C328.574183,41.3467427 349.472653,50.5328794 370.816232,58.1881057 C372.782302,58.8996081 376.448189,59.671133 376.985437,58.8523994 C381.441952,52.2216017 385.34225,45.2293203 390.164609,37.0682866 C259.088991,-9.73508311 130.360868,-15.0534792 0,37.4790022 C3.98024146,44.8186047 7.13462517,50.7540858 10.3845347,56.6261725 C12.2713385,60.0191285 14.682518,60.5721446 18.5198095,59.039211 Z" id="Fill-3"></path>
        </g>
    </g>
</svg>