<?xml version="1.0" encoding="UTF-8"?>
<svg width="500px" height="500px" viewBox="0 0 500 500" version="1.1" xmlns="http://www.w3.org/2000/svg" xmlns:xlink="http://www.w3.org/1999/xlink">
    <title>TSLA</title>
    <g id="TSLA" stroke="none" stroke-width="1" fill="none" fill-rule="evenodd">
        <rect fill="#FFFFFF" x="0" y="0" width="500" height="500"></rect>
        <g id="tesila-(1)" transform="translate(1.000000, 7.000000)" fill="#CC0200">
            <path d="M471,88.2085092 C469.192001,87.1151613 468.261133,86.3432335 467.184654,85.9377764 C413.721274,65.9976064 357.779912,53.4656912 300.918083,48.6868427 C297.691247,48.4026762 293.208519,50.673409 290.977556,53.2083819 C283.674488,61.482998 276.957329,70.3259471 270.345912,79.1862234 C263.266461,88.6754779 256.531968,98.4289726 249.026085,108.933603 C246.510834,105.82943 244.844979,103.822938 243.243262,101.775726 C231.437531,86.6889116 219.72974,71.4998666 207.781866,56.5152827 C203.137059,50.6942017 197.557051,47.3101947 189.200906,48.1185097 C145.4007,52.3792742 102.697774,61.4630717 61.2126037,76.1028438 C48.4318015,80.624383 35.9968246,86.0798597 22,91.6774196 C41.088864,112.321075 59.631688,129.779986 86.0634894,139.817648 C87.8480867,125.299166 95.3947058,116.111405 107.484724,110.858657 C129.152977,101.470767 151.955779,102.201976 174.754248,104.412063 C176.806665,104.614792 179.623538,108.669362 180.11064,111.284907 C185.284152,139.5742 190.152575,167.940599 194.919591,196.310464 C202.324066,240.352804 209.606333,284.398608 216.930202,328.440948 C223.626559,368.652238 230.259645,408.863528 236.993271,449.074818 C239.065622,461.403138 241.378058,473.691606 243.58822,486 C245.982129,482.612528 246.672913,479.407857 247.238021,476.205786 C256.674111,423.401936 266.046064,370.577293 275.539359,317.773442 C287.466432,251.40584 299.557317,185.058165 311.487857,118.707024 C314.142651,103.945095 313.963238,103.071802 328.630045,102.83182 C360.356701,102.324133 392.957021,100.841789 407.948851,138.965148 C435.437197,129.820705 458.341407,115.827239 471,88.2085092 Z" id="路径"></path>
            <path d="M23.6858616,75.9568796 C35.9317016,71.0493844 48.3361058,66.5514256 60.8800119,62.4742828 C113.745164,45.4464199 168.437703,34.7568264 223.813889,30.6319622 C280.841569,26.201681 337.280916,30.021996 392.342572,45.4160517 C420.229087,53.1946398 446.95713,65.0130612 474.254444,74.8618904 C476.768944,75.7772736 481.45742,76.7698787 482.144532,75.7165373 C487.844181,67.1856864 492.832457,58.1897688 499,47.6901933 C331.361183,-12.5246683 166.72469,-19.3670493 0,48.2185993 C5.09051934,57.6613628 9.12481008,65.2976543 13.2812733,72.8523856 C15.6943961,77.2175922 18.7781677,77.9290749 23.6858616,75.9568796 Z" id="Fill-3"></path>
        </g>
    </g>
</svg>