<?xml version="1.0" encoding="UTF-8"?>
<svg width="500px" height="500px" viewBox="0 0 500 500" version="1.1" xmlns="http://www.w3.org/2000/svg" xmlns:xlink="http://www.w3.org/1999/xlink">
    <title>USD</title>
    <g id="USD" stroke="none" stroke-width="1" fill="none" fill-rule="evenodd">
        <rect fill="#FFFFFF" x="0" y="0" width="500" height="500"></rect>
        <path d="M380.305866,330.637 C380.305866,359.097118 371.064684,383.603984 352.579881,404.158208 C334.095079,424.712433 310.083244,437.407761 280.544988,442.242971 L280.544988,491.071156 C280.544988,493.67736 279.709258,495.816035 278.037799,497.489621 C276.36634,499.163207 274.227945,500 271.627491,500 L234.007467,500 C231.592934,500 229.502696,499.118041 227.737971,497.34863 C225.973856,495.58227 225.08997,493.491203 225.08997,491.071156 L225.08997,442.242971 C212.829555,440.569385 200.98548,437.686692 189.560794,433.593059 C178.136108,429.501867 168.709005,425.363068 161.277656,421.179103 C153.845698,416.992086 146.971502,412.52919 140.656897,407.784311 C134.339244,403.042484 130.020394,399.554321 127.698516,397.322873 C125.376639,395.088373 123.750288,393.414787 122.821903,392.299063 C119.664296,388.394029 119.478985,384.579327 122.26475,380.85984 L150.967277,343.191947 C152.267504,341.332204 154.40346,340.21648 157.374537,339.844775 C160.16335,339.47246 162.391962,340.309253 164.063422,342.355154 L164.620575,342.913016 C185.613176,361.328566 208.186409,372.953946 232.336008,377.791599 C239.210204,379.279027 246.08501,380.023047 252.956767,380.023047 C268.005996,380.023047 281.242953,376.024629 292.667639,368.025962 C304.092325,360.026685 309.804668,348.680235 309.804668,333.984172 C309.804668,328.777257 308.411785,323.846831 305.62602,319.197777 C302.837206,314.546282 299.727756,310.640638 296.289134,307.477182 C292.85295,304.315557 287.419184,300.827394 279.987835,297.015133 C272.556486,293.202873 266.427192,290.224964 261.595688,288.086289 C256.766621,285.947615 249.335272,282.92454 239.303469,279.019506 C232.057431,276.041597 226.345088,273.716765 222.16644,272.043179 C217.984745,270.369593 212.272402,267.90438 205.026364,264.649981 C197.783374,261.393141 191.977766,258.510447 187.610759,256.000068 C183.24619,253.486638 177.998344,250.187073 171.866613,246.09344 C165.734881,242.002249 160.765612,238.049607 156.958196,234.234905 C153.15078,230.422034 149.109897,225.866365 144.835545,220.563624 C140.563632,215.263324 137.265822,209.86842 134.944554,204.379522 C132.620238,198.893675 130.670202,192.708975 129.091399,185.826033 C127.512595,178.94309 126.721974,171.690273 126.721974,164.063311 C126.721974,138.392503 135.825392,115.885762 154.031619,96.5406452 C172.237845,77.1955288 195.923556,64.7333554 225.08997,59.1516835 L225.08997,8.92884391 C225.08997,6.51123842 225.973856,4.41773 227.737971,2.65137042 C229.502696,0.884400494 231.592934,0 234.007467,0 L271.627491,0 C274.227945,0 276.36634,0.836793014 278.037799,2.51037904 C279.709258,4.18396507 280.544988,6.32508096 280.544988,8.92884391 L280.544988,58.0359595 C291.133944,59.1516835 301.399215,61.290358 311.338363,64.4544244 C321.276901,67.615439 329.358668,70.7318979 335.580617,73.8001389 C341.805004,76.86838 347.703268,80.3565434 353.277847,84.2646292 C358.849377,88.1696633 362.471482,90.8661998 364.145379,92.3536284 C365.816839,93.8441087 367.209721,95.1459902 368.324027,96.2617142 C371.481635,99.6088862 371.945522,103.144657 369.71691,106.864144 L347.146115,147.600278 C345.659967,150.389588 343.52462,151.880068 340.735807,152.066226 C338.135962,152.624088 335.628164,151.972842 333.211802,150.110657 C332.654039,149.552795 331.308704,148.437071 329.173357,146.763485 C327.034962,145.089899 323.412857,142.624686 318.302776,139.370287 C313.195743,136.113447 307.761976,133.13798 302.001477,130.441443 C296.244025,127.744907 289.322282,125.32486 281.242953,123.186186 C273.161186,121.047511 265.219621,119.976953 257.41704,119.976953 C239.767967,119.976953 225.368547,123.977812 214.222437,131.976479 C203.076328,139.973315 197.504797,150.296814 197.504797,162.947587 C197.504797,167.782798 198.29298,172.248135 199.871174,176.339327 C201.449978,180.430518 204.190634,184.290386 208.093754,187.919541 C211.993825,191.545644 215.663477,194.613885 219.099051,197.127316 C222.537673,199.637695 227.737971,202.520389 234.705432,205.777229 C241.672894,209.031627 247.291971,211.542006 251.563885,213.308366 C255.838236,215.077777 262.338762,217.633322 271.070338,220.983546 C280.91622,224.702423 288.440834,227.632724 293.641133,229.771399 C298.844479,231.910073 305.904596,235.166913 314.822093,239.537036 C323.738981,243.907158 330.751551,247.86041 335.859193,251.396181 C340.969275,254.92951 346.726726,259.581005 353.137034,265.345783 C359.547343,271.113002 364.469065,277.018771 367.907687,283.06309 C371.343261,289.10924 374.269838,296.223506 376.684371,304.408331 C379.098904,312.593155 380.305866,321.336452 380.305866,330.637 Z" id="Fill-1" fill="#000000"></path>
    </g>
</svg>