<?xml version="1.0" encoding="UTF-8"?>
<svg width="500px" height="500px" viewBox="0 0 500 500" version="1.1" xmlns="http://www.w3.org/2000/svg" xmlns:xlink="http://www.w3.org/1999/xlink">
    <title>ARKK</title>
    <g id="ARKK" stroke="none" stroke-width="1" fill="none" fill-rule="evenodd">
        <rect fill="#FFFFFF" x="0" y="0" width="500" height="500"></rect>
        <g id="ark-logo-1-1" transform="translate(15.000000, 15.000000)" fill="#0A0A23" fill-rule="nonzero">
            <path d="M470,235 C470,105.43325 364.588753,0 235,0 C105.411247,0 0,105.411247 0,235 C0,364.588753 105.411247,470 235,470 C364.588753,470 470,364.588753 470,235 Z M215.019545,14.274923 L38.0918562,336.585495 C21.8036691,305.202044 13.3119299,270.358639 13.3348033,235 C13.3348033,119.511431 102.1319,24.4290719 215.019545,14.2967425 L215.019545,14.274923 Z M228.311122,231.076152 L56.8372157,330.09281 L228.311122,17.7616471 L228.311122,231.076152 Z M228.311122,456.457223 C191.6864,455.344244 155.908789,445.168825 124.180627,426.842254 C92.4515468,408.515683 65.7613116,382.6082 46.497234,351.440194 L228.311122,246.509343 L228.311122,456.457223 Z M287.629072,119.893731 C287.573148,139.182011 283.44944,158.242012 275.525651,175.82782 C267.601861,193.413627 256.056763,209.129189 241.645789,221.949538 L241.645789,17.8162876 C256.159443,30.5572426 267.7733,46.260978 275.705341,63.8692467 C283.637382,81.4775153 287.703332,100.581614 287.629072,119.893731 Z M423.415304,118.439707 L274.764717,204.242714 C291.736277,179.381286 300.848223,149.995514 300.920649,119.893731 C300.994909,100.327664 297.198494,80.9398198 289.7496,62.8469375 C282.299789,44.7540553 271.346019,28.3134065 257.516288,14.4716654 C291.27055,17.9692077 323.772481,29.1600593 352.524753,47.1838158 C381.277026,65.2075723 405.514122,89.5842956 423.371299,118.439707 L423.415304,118.439707 Z M430.1161,340.006944 L248.258573,235 L430.1161,129.960051 C447.520384,162.230036 456.632329,198.319354 456.632329,234.983498 C456.632329,271.647642 447.520384,307.73696 430.1161,340.006944 Z M423.404303,351.527289 C404.134358,382.671459 377.447607,408.556022 345.730445,426.866091 C314.012367,445.177076 278.252175,455.343327 241.645789,456.457223 L241.645789,246.531346 L423.404303,351.527289 Z" id="path2"></path>
        </g>
    </g>
</svg>