<?xml version="1.0" encoding="UTF-8"?>
<svg width="500px" height="500px" viewBox="0 0 500 500" version="1.1" xmlns="http://www.w3.org/2000/svg" xmlns:xlink="http://www.w3.org/1999/xlink">
    <title>ARKK</title>
    <g id="ARKK" stroke="none" stroke-width="1" fill="none" fill-rule="evenodd">
        <rect fill="#FFFFFF" x="0" y="0" width="500" height="500"></rect>
        <g id="ark-logo-1-1" transform="translate(90.000000, 90.000000)" fill="#0A0A23" fill-rule="nonzero">
            <path d="M315.483077,157.741538 C315.483077,70.7710769 244.726769,0 157.741538,0 C70.7563077,0 0,70.7563077 0,157.741538 C0,244.726769 70.7563077,315.483077 157.741538,315.483077 C244.726769,315.483077 315.483077,244.726769 315.483077,157.741538 Z M144.329846,9.58190769 L25.5688,225.929846 C14.6355077,204.864 8.93550769,181.475692 8.95086125,157.741538 C8.95086125,80.2209231 68.5550769,16.3977846 144.329846,9.59655385 L144.329846,9.58190769 Z M153.251692,155.107692 L38.1514462,221.571692 L153.251692,11.9223385 L153.251692,155.107692 Z M153.251692,306.392615 C128.667692,305.645538 104.652308,298.815385 83.3550769,286.513846 C62.0572308,274.212308 44.1416615,256.822154 31.2108308,235.900923 L153.251692,165.467077 L153.251692,306.392615 Z M193.068308,80.4775385 C193.030769,93.4246154 190.262769,106.218462 184.944,118.022769 C179.625231,129.827077 171.875692,140.376 162.202462,148.981538 L162.202462,11.9590154 C171.944615,20.5112615 179.740308,31.0522462 185.064615,42.8716308 C190.388923,54.6910154 193.118154,67.5144615 193.068308,80.4775385 Z M284.213538,79.5015385 L184.433231,137.096 C195.825231,120.408 201.941538,100.683077 201.990154,80.4775385 C202.04,67.344 199.491692,54.3300923 194.491692,42.1854154 C189.491077,30.0407385 182.138462,19.0051077 172.855385,9.71396923 C195.512615,12.0616615 217.329231,19.5734154 236.628923,31.6716923 C255.928615,43.7699692 272.197538,60.1326154 284.184,79.5015385 L284.213538,79.5015385 Z M288.711385,228.226462 L166.641231,157.741538 L288.711385,87.2344615 C300.393846,108.895385 306.510154,133.12 306.510154,157.730462 C306.510154,182.340923 300.393846,206.565538 288.711385,228.226462 Z M284.206154,235.959385 C271.271385,256.864615 253.358154,274.239385 232.068308,286.529846 C210.777846,298.820923 186.774154,305.644923 162.202462,306.392615 L162.202462,165.481846 L284.206154,235.959385 Z" id="path2"></path>
        </g>
    </g>
</svg>