<?xml version="1.0" encoding="UTF-8"?>
<svg width="500px" height="500px" viewBox="0 0 500 500" version="1.1" xmlns="http://www.w3.org/2000/svg" xmlns:xlink="http://www.w3.org/1999/xlink">
    <title>BIDU</title>
    <defs>
        <polygon id="path-1" points="0.0248704663 0.181726569 319.727906 0.181726569 319.727906 337.823985 0.0248704663 337.823985"></polygon>
    </defs>
    <g id="BIDU" stroke="none" stroke-width="1" fill="none" fill-rule="evenodd">
        <rect fill="#FFFFFF" x="0" y="0" width="500" height="500"></rect>
        <g id="baidu-(1)" transform="translate(90.000000, 81.000000)">
            <mask id="mask-2" fill="white">
                <use xlink:href="#path-1"></use>
            </mask>
            <g id="Clip-2"></g>
            <path d="M159.864041,127.495544 C180.067979,127.08228 199.132021,139.379896 210.312539,157.595855 C226.975337,185.173472 248.877927,199.943627 256.784249,207.414301 C266.65658,216.752332 308.47171,238.946321 299.401036,287.527876 C290.401658,335.430881 245.020933,337.565181 245.020933,337.565181 C245.020933,337.565181 223.774093,339.820518 187.223212,331.015544 C178.23171,329.056166 169.064041,328.032746 159.864041,327.960207 C150.662383,328.031503 141.494301,329.054508 132.50487,331.015544 C95.9034197,339.820518 74.7054922,337.565181 74.7054922,337.565181 C74.7054922,337.565181 29.3492228,335.430881 20.3270466,287.527876 C11.2062176,238.946321 53.0698446,216.752332 62.9421762,207.414301 C70.8484974,199.943627 92.7751295,185.173472 109.413886,157.595855 C120.596062,139.404352 139.660104,127.08228 159.864041,127.495544 Z M147.833368,183.645181 L124.136788,183.645181 L124.136788,220.36601 L104.004145,220.36601 C78.4891192,220.36601 61.2679793,239.043316 61.2679793,262.81285 C61.2679793,288.691813 77.4466321,306.85886 105.556891,306.85886 L147.857824,306.85886 L147.857824,183.645181 L147.833368,183.645181 Z M243.468187,219.614922 L220.427358,219.614922 L220.475855,283.889326 L196.730777,283.889326 C192.363938,283.889326 189.017202,281.488083 189.017202,273.095959 L189.017202,219.66342 L166.07171,219.66342 L166.07171,280.518549 C166.07171,296.186943 175.047047,306.85886 194.813679,306.85886 L243.468187,306.85886 L243.468187,219.614922 Z M113.633575,243.263005 L124.161244,243.287047 L124.161244,283.938238 L104.465492,283.938238 C92.4596891,283.938238 84.8203109,274.381762 84.8203109,263.636891 C84.8203109,252.940518 92.0240415,243.263005 103.859896,243.263005 L113.633575,243.263005 Z M36.9658031,81.9693264 C60.8078756,79.8109845 75.2882902,104.381762 77.5436269,125.942383 C80.1131606,150.319171 71.4557513,175.665907 46.5463212,179.109637 C17.6588601,183.110466 0.171606218,158.27399 0.00165803109,133.073575 C-0.144248705,106.540104 14.0203109,84.0319171 36.9413472,81.9693264 L36.9658031,81.9693264 Z M282.809119,81.9693264 C305.706114,84.0319171 319.894715,106.564145 319.726425,133.073575 C319.580518,158.27399 302.092021,183.110466 273.230259,179.109637 C248.319171,175.689948 239.661762,150.319171 242.232953,125.942383 C244.48829,104.381762 258.967047,79.8109845 282.809119,81.9693264 Z M109.486839,0.231709845 C133.110466,-1.00518135 148.052228,20.8729534 148.706321,48.2076684 C149.26342,72.9956477 140.532642,98.2449741 115.913368,100.59772 C88.5541969,103.193368 69.7570984,79.8109845 70.7025907,50.5119171 C71.5282902,22.4240415 88.4812435,1.37160622 109.486839,0.231709845 Z M210.239585,0.231709845 C231.220725,1.37160622 248.199378,22.4240415 249.023834,50.5119171 C249.969326,79.8109845 231.148187,103.193368 203.789016,100.573264 C179.193782,98.2449741 170.414508,72.9956477 171.020104,48.1836269 C171.651399,20.8974093 186.664456,-0.981139896 210.239585,0.256165803 L210.239585,0.231709845 Z" id="Fill-1" fill="#2932E1" mask="url(#mask-2)"></path>
        </g>
    </g>
</svg>