<?xml version="1.0" encoding="UTF-8"?>
<svg width="500px" height="500px" viewBox="0 0 500 500" version="1.1" xmlns="http://www.w3.org/2000/svg" xmlns:xlink="http://www.w3.org/1999/xlink">
    <title>busd</title>
    <defs>
        <polygon id="path-1" points="0.0365853659 0.487804878 499.511585 0.487804878 499.511585 499.99939 0.0365853659 499.99939"></polygon>
    </defs>
    <g id="busd" stroke="none" stroke-width="1" fill="none" fill-rule="evenodd">
        <rect fill="#FFFFFF" x="0" y="0" width="500" height="500"></rect>
        <g id="BUSD">
            <g id="编组">
                <mask id="mask-2" fill="white">
                    <use xlink:href="#path-1"></use>
                </mask>
                <g id="Clip-2"></g>
                <path d="M0,250.245122 C0,388.180488 111.818902,499.99939 249.757317,499.99939 C387.692683,499.99939 499.511585,388.180488 499.511585,250.245122 C499.511585,112.306707 387.692683,0.487804878 249.757317,0.487804878 C111.818902,0.487804878 0,112.306707 0,250.245122 Z" id="Fill-1" fill="#F0B90B" mask="url(#mask-2)"></path>
            </g>
            <path d="M365.604531,209.604531 L406,250 L250,406 L209.604531,365.604531 L365.604531,209.604531 Z M309.487797,153.487797 L349.880219,193.880219 L193.880219,349.880219 L153.487797,309.487797 L309.487797,153.487797 Z M250,94 L290.392422,134.392422 L191.632844,233.170281 L151.240422,192.756531 L250,94 Z M137.762875,206.236516 L178.176625,246.628938 L134.392422,290.392422 L94,250 L137.762875,206.236516 Z" id="Fill-3" fill="#FFFFFF"></path>
        </g>
    </g>
</svg>