<?xml version="1.0" encoding="UTF-8"?>
<svg width="500px" height="500px" viewBox="0 0 500 500" version="1.1" xmlns="http://www.w3.org/2000/svg" xmlns:xlink="http://www.w3.org/1999/xlink">
    <title>kala</title>
    <defs>
        <path d="M235.266384,471.287129 C365.20042,471.287129 470.532768,383.032288 470.532768,252.889941 C470.532768,231.760377 499.344375,293.188406 490.73499,181.086957 C482.820904,78.038895 344.104676,0 235.266384,0 C105.332348,0 0,105.501217 0,235.643564 C0,365.785911 105.332348,471.287129 235.266384,471.287129 Z" id="path-1"></path>
    </defs>
    <g id="kala" stroke="none" stroke-width="1" fill="none" fill-rule="evenodd">
        <rect fill="#FFFFFF" x="0" y="0" width="500" height="500"></rect>
        <g id="编组" transform="translate(1.000000, 12.000000)">
            <mask id="mask-2" fill="white">
                <use xlink:href="#path-1"></use>
            </mask>
            <use id="椭圆形" fill-opacity="0" fill="#D8D8D8" xlink:href="#path-1"></use>
            <g mask="url(#mask-2)">
                <g transform="translate(-21.225119, 58.910891)">
                    <path d="M475.607422,311.395616 C449.144067,311.395616 424.682716,302.174482 408.595699,286.431431 C392.511523,302.174482 368.047332,311.395616 341.589656,311.395616 C315.129142,311.395616 290.66495,302.174482 274.580774,286.431431 C258.496597,302.174482 234.032406,311.395616 207.571891,311.395616 C181.111376,311.395616 156.647185,302.174482 140.563008,286.431431 C124.475992,302.174482 100.014641,311.395616 73.5541257,311.395616 C44.1516605,311.395616 17.2140726,300.012835 1.49905983,280.941984 C-0.803953427,278.148908 -0.409232289,274.019023 2.37937316,271.712318 C5.16513889,269.405612 9.29125266,269.800966 11.5942659,272.594042 C24.6541401,288.442332 48.3942028,298.286361 73.5541257,298.286361 C98.7140486,298.286361 122.456951,288.442332 135.513985,272.594042 C136.757783,271.086578 138.609281,270.213386 140.563008,270.213386 C142.516736,270.213386 144.368234,271.086578 145.612031,272.594042 C158.669066,288.442332 182.411968,298.286361 207.571891,298.286361 C232.731814,298.286361 256.474716,288.442332 269.531751,272.594042 C272.019346,269.576269 277.139362,269.576269 279.626957,272.594042 C292.686831,288.442332 316.429734,298.286361 341.589656,298.286361 C366.749579,298.286361 390.489642,288.442332 403.549516,272.594042 C406.037111,269.576269 411.157127,269.576269 413.644722,272.594042 C426.903377,288.681251 450.064137,298.286361 475.607422,298.286361 C500.767345,298.286361 524.507407,288.442332 537.567282,272.594042 C539.870295,269.80381 543.98789,269.408456 546.779335,271.712318 C549.56794,274.019023 549.959822,278.148908 547.659648,280.941984 C531.947475,300.012835 505.009887,311.395616 475.607422,311.395616" id="Fill-50" fill="#000000"></path>
                    <path d="M279.626957,236.713537 C277.142202,233.695764 272.016506,233.695764 269.531751,236.713537 C256.474716,252.558983 232.731814,262.403012 207.571891,262.403012 C182.411968,262.403012 158.669066,252.558983 145.612031,236.713537 C144.368234,235.206073 142.516736,234.332881 140.563008,234.332881 C138.609281,234.332881 136.757783,235.206073 135.516825,236.713537 C126.739249,247.362496 113.12563,255.280952 97.5128469,259.342574 C109.510666,213.831361 127.429301,161.897778 153.676837,117.387749 C191.254858,53.6674994 237.675767,18.8649741 291.647493,13.9529145 C342.373419,9.34234782 358.946028,23.8936489 374.976249,37.9728006 C381.382659,43.5987727 388.007726,49.4181555 396.450215,53.4228919 C405.142599,57.5470879 415.706359,59.6290958 425.920834,61.6456854 C437.140569,63.8585299 448.666994,66.131104 453.423526,70.650654 C449.544468,69.0863038 445.213894,68.2017348 440.633425,68.2017348 C437.018461,68.2017348 434.08787,71.1370247 434.08787,74.7577843 C434.08787,78.3785439 437.018461,81.3109895 440.633425,81.3109895 C447.914468,81.3109895 454.281122,84.8777079 456.53302,89.6731523 C456.359797,91.544684 456.058787,93.3792401 455.683943,95.1853535 C448.885653,92.8871809 442.240707,91.2517238 436.21482,90.2647611 C434.786441,90.0116208 433.443253,91.0014278 433.210396,92.4320972 C432.977539,93.8599223 433.945884,95.2081077 435.371423,95.4413381 C440.579471,96.2917757 447.196019,97.9130114 454.306679,100.367619 C453.338334,103.385393 452.108735,106.286551 450.649119,109.065406 C444.722623,105.123244 438.85292,101.880772 433.349542,99.4602959 C432.023393,98.8743757 430.481425,99.4802059 429.899282,100.805637 C429.317139,102.131068 429.91916,103.678353 431.24247,104.261429 C436.038758,106.369035 441.809069,109.534711 447.940026,113.693038 C445.725044,117.106166 443.189174,120.291752 440.392049,123.204288 C433.948723,116.705124 427.337854,111.454596 421.113187,107.637581 C419.883588,106.886693 418.273467,107.27067 417.512422,108.505084 C416.759896,109.739499 417.146098,111.352202 418.378536,112.111623 C423.592263,115.305741 429.964596,120.311662 436.487433,126.947351 C434.559263,128.662448 432.56294,130.272306 430.492784,131.739951 C427.451443,127.476386 424.202803,123.827183 421.030835,120.945935 C419.957421,119.973193 418.301864,120.049989 417.330679,121.125124 C416.359495,122.197415 416.441847,123.855626 417.512422,124.828368 C420.06817,127.152139 423.066915,130.497004 426.014544,134.64111 C425.154109,135.155923 424.293674,135.682114 423.41904,136.151419 C402.811189,147.263994 371.92071,149.968897 347.03908,124.216849 C344.525927,121.617183 340.379936,121.546076 337.784431,124.066102 C335.186087,126.583284 335.117934,130.733078 337.631086,133.335588 C354.365559,150.654367 373.360449,157.275835 391.196732,157.420893 C376.472782,178.607883 376.867503,211.40804 382.146543,253.181879 C370.307749,259.06668 356.194339,262.403012 341.589656,262.403012 C316.429734,262.403012 292.686831,252.558983 279.626957,236.713537 Z" id="路径" fill="#E3C99E"></path>
                    <path d="M475.607422,347.281809 C449.146907,347.281809 424.685555,338.057831 408.595699,322.31478 C392.508683,338.057831 368.047332,347.281809 341.589656,347.281809 C315.129142,347.281809 290.66779,338.057831 274.580774,322.31478 C258.493758,338.057831 234.029566,347.281809 207.571891,347.281809 C181.111376,347.281809 156.650025,338.057831 140.563008,322.31478 C124.475992,338.057831 100.011801,347.281809 73.5541257,347.281809 C44.1545002,347.281809 17.2169123,335.896184 1.49905983,316.825333 C-0.803953427,314.032257 -0.409232289,309.902372 2.37937316,307.595667 C5.16513889,305.288961 9.29125266,305.684315 11.5914262,308.477391 C24.6541401,324.325681 48.3970425,334.16971 73.5541257,334.16971 C98.7112089,334.16971 122.454111,324.325681 135.516825,308.477391 C136.757783,306.969927 138.609281,306.096735 140.563008,306.096735 C142.516736,306.096735 144.368234,306.969927 145.612031,308.477391 C158.671906,324.325681 182.411968,334.16971 207.571891,334.16971 C232.728974,334.16971 256.471877,324.325681 269.531751,308.477391 C272.016506,305.459618 277.142202,305.459618 279.626957,308.477391 C292.686831,324.325681 316.429734,334.16971 341.589656,334.16971 C366.74674,334.16971 390.489642,324.325681 403.549516,308.477391 C406.034272,305.459618 411.159967,305.459618 413.644722,308.477391 C426.704597,324.325681 450.450339,334.16971 475.607422,334.16971 C500.764505,334.16971 524.504568,324.325681 537.567282,308.477391 C539.870295,305.684315 543.993569,305.291806 546.779335,307.595667 C549.56794,309.902372 549.959822,314.032257 547.659648,316.825333 C531.944635,335.896184 505.007047,347.281809 475.607422,347.281809" id="Fill-36" fill="#000000"></path>
                    <path d="M343.338924,54.694282 C349.946954,70.7331379 342.322304,89.0986091 326.311961,95.7143883 C310.298777,102.333012 291.962702,94.6961385 285.357513,78.6601269 C278.749483,62.6212711 286.374133,44.2557998 302.384476,37.6371764 C318.39766,31.0213972 336.733735,38.6582704 343.338924,54.694282" id="Fill-37" fill="#000000"></path>
                    <path d="M331.332586,50.0182971 C332.846157,53.6902536 331.099729,57.8969335 327.43365,59.412931 C323.764731,60.9289286 319.564785,59.1797007 318.054054,55.5048998 C316.540483,51.8329433 318.286911,47.6262634 321.95299,46.1102659 C325.621909,44.5942683 329.821855,46.3434963 331.332586,50.0182971" id="Fill-38" fill="#FFFFFF"></path>
                    <path d="M338.951556,64.3818761 C339.661486,66.1026613 338.843647,68.0765868 337.122776,68.7876551 C335.404745,69.4958791 333.436819,68.6767284 332.726889,66.9559432 C332.016959,65.2323138 332.834798,63.2612325 334.555669,62.5501642 C336.2737,61.839096 338.241626,62.6610909 338.951556,64.3818761" id="Fill-39" fill="#FFFFFF"></path>
                    <path d="M170.800351,190.47419 C170.800351,197.65598 164.984604,203.478207 157.81431,203.478207 C150.644016,203.478207 144.831108,197.65598 144.831108,190.47419 C144.831108,183.292401 150.644016,177.467329 157.81431,177.467329 C164.984604,177.467329 170.800351,183.292401 170.800351,190.47419" id="Fill-40" fill="#BFA374"></path>
                    <path d="M171.532999,222.477951 C171.532999,227.426986 167.528993,231.437411 162.59072,231.437411 C157.649606,231.437411 153.6456,227.426986 153.6456,222.477951 C153.6456,217.53176 157.649606,213.518491 162.59072,213.518491 C167.528993,213.518491 171.532999,217.53176 171.532999,222.477951" id="Fill-41" fill="#BFA374"></path>
                    <path d="M369.018516,180.044241 C369.018516,184.13715 365.704562,187.456416 361.618205,187.456416 C357.529007,187.456416 354.215053,184.13715 354.215053,180.044241 C354.215053,175.951332 357.529007,172.632065 361.618205,172.632065 C365.704562,172.632065 369.018516,175.951332 369.018516,180.044241" id="Fill-42" fill="#BFA374"></path>
                    <path d="M141.670499,211.442171 C141.670499,214.906496 138.867695,217.710949 135.411756,217.710949 C131.952976,217.710949 129.150172,214.906496 129.150172,211.442171 C129.150172,207.980691 131.952976,205.173393 135.411756,205.173393 C138.867695,205.173393 141.670499,207.980691 141.670499,211.442171" id="Fill-43" fill="#BFA374"></path>
                    <path d="M371.085832,197.661668 C371.085832,199.939931 369.242854,201.785864 366.971078,201.785864 C364.696462,201.785864 362.853483,199.939931 362.853483,197.661668 C362.853483,195.38625 364.696462,193.540316 366.971078,193.540316 C369.242854,193.540316 371.085832,195.38625 371.085832,197.661668" id="Fill-44" fill="#BFA374"></path>
                    <path d="M404.012391,127.726682 C404.012391,130.004945 402.169412,131.850878 399.894796,131.850878 C397.62302,131.850878 395.780041,130.004945 395.780041,127.726682 C395.780041,125.451263 397.62302,123.60533 399.894796,123.60533 C402.169412,123.60533 404.012391,125.451263 404.012391,127.726682" id="Fill-45" fill="#BFA374"></path>
                    <path d="M411.446779,117.165896 C411.446779,119.444159 409.6038,121.290092 407.332024,121.290092 C405.057408,121.290092 403.214429,119.444159 403.214429,117.165896 C403.214429,114.890477 405.057408,113.044544 407.332024,113.044544 C409.6038,113.044544 411.446779,114.890477 411.446779,117.165896" id="Fill-46" fill="#BFA374"></path>
                    <path d="M393.195896,115.538972 C393.195896,117.817234 391.352917,119.663168 389.078301,119.663168 C386.806525,119.663168 384.963546,117.817234 384.963546,115.538972 C384.963546,113.263553 386.806525,111.41762 389.078301,111.41762 C391.352917,111.41762 393.195896,113.263553 393.195896,115.538972" id="Fill-47" fill="#BFA374"></path>
                    <path d="M224.576137,94.7757782 C220.47842,96.1410293 216.179084,94.3804242 215.003439,90.8449928 C214.463893,89.2266014 214.659833,87.4375537 215.554345,85.8134737 C216.539728,84.0158931 218.229362,82.6421092 220.308037,81.9481066 C223.73558,80.8047088 225.589917,77.0929325 224.44835,73.6570506 C223.303942,70.2211687 219.589588,68.3667027 216.170565,69.5101005 C210.956838,71.2507956 206.66602,74.7947598 204.084714,79.4906547 C201.409698,84.3572059 200.87867,89.8637186 202.585342,94.9919429 C205.317153,103.200515 213.200217,108.345805 221.790371,108.345805 C224.076346,108.345805 226.413436,107.981738 228.716449,107.213784 C232.143992,106.067542 233.998329,102.355766 232.853922,98.9227283 C231.712354,95.4868465 228.003679,93.6295361 224.576137,94.7757782" id="Fill-48" fill="#000000"></path>
                    <path d="M279.626957,236.713537 C277.142202,233.695764 272.016506,233.695764 269.531751,236.713537 C256.474716,252.558983 232.731814,262.403012 207.571891,262.403012 C182.411968,262.403012 158.669066,252.558983 145.612031,236.713537 C144.368234,235.206073 142.516736,234.332881 140.563008,234.332881 C138.609281,234.332881 136.757783,235.206073 135.516825,236.713537 C126.739249,247.362496 113.12563,255.280952 97.5128469,259.342574 C109.510666,213.831361 127.429301,161.897778 153.676837,117.387749 C191.254858,53.6674994 237.675767,18.8649741 291.647493,13.9529145 C342.373419,9.34234782 358.946028,23.8936489 374.976249,37.9728006 C381.382659,43.5987727 388.007726,49.4181555 396.450215,53.4228919 C405.142599,57.5470879 415.706359,59.6290958 425.920834,61.6456854 C437.140569,63.8585299 448.666994,66.131104 453.423526,70.650654 C449.544468,69.0863038 445.213894,68.2017348 440.633425,68.2017348 C437.018461,68.2017348 434.08787,71.1370247 434.08787,74.7577843 C434.08787,78.3785439 437.018461,81.3109895 440.633425,81.3109895 C447.914468,81.3109895 454.281122,84.8777079 456.53302,89.6731523 C456.359797,91.544684 456.058787,93.3792401 455.683943,95.1853535 C448.885653,92.8871809 442.240707,91.2517238 436.21482,90.2647611 C434.786441,90.0116208 433.443253,91.0014278 433.210396,92.4320972 C432.977539,93.8599223 433.945884,95.2081077 435.371423,95.4413381 C440.579471,96.2917757 447.196019,97.9130114 454.306679,100.367619 C453.338334,103.385393 452.108735,106.286551 450.649119,109.065406 C444.722623,105.123244 438.85292,101.880772 433.349542,99.4602959 C432.023393,98.8743757 430.481425,99.4802059 429.899282,100.805637 C429.317139,102.131068 429.91916,103.678353 431.24247,104.261429 C436.038758,106.369035 441.809069,109.534711 447.940026,113.693038 C445.725044,117.106166 443.189174,120.291752 440.392049,123.204288 C433.948723,116.705124 427.337854,111.454596 421.113187,107.637581 C419.883588,106.886693 418.273467,107.27067 417.512422,108.505084 C416.759896,109.739499 417.146098,111.352202 418.378536,112.111623 C423.592263,115.305741 429.964596,120.311662 436.487433,126.947351 C434.559263,128.662448 432.56294,130.272306 430.492784,131.739951 C427.451443,127.476386 424.202803,123.827183 421.030835,120.945935 C419.957421,119.973193 418.301864,120.049989 417.330679,121.125124 C416.359495,122.197415 416.441847,123.855626 417.512422,124.828368 C420.06817,127.152139 423.066915,130.497004 426.014544,134.64111 C425.154109,135.155923 424.293674,135.682114 423.41904,136.151419 C402.811189,147.263994 371.92071,149.968897 347.03908,124.216849 C344.525927,121.617183 340.379936,121.546076 337.784431,124.066102 C335.186087,126.583284 335.117934,130.733078 337.631086,133.335588 C354.365559,150.654367 373.360449,157.275835 391.196732,157.420893 C376.472782,178.607883 376.867503,211.40804 382.146543,253.181879 C370.307749,259.06668 356.194339,262.403012 341.589656,262.403012 C316.429734,262.403012 292.686831,252.558983 279.626957,236.713537 Z M546.779335,235.831813 C543.993569,233.530796 539.870295,233.920461 537.567282,236.713537 C524.507407,252.558983 500.767345,262.403012 475.607422,262.403012 C450.064137,262.403012 426.903377,252.800746 413.644722,236.713537 C411.159967,233.695764 406.034272,233.695764 403.549516,236.713537 C400.911416,239.913345 397.81896,242.857167 394.385738,245.536473 C389.18621,201.074796 390.708301,169.022683 412.824043,154.474226 C418.835731,152.784728 424.498134,150.460956 429.623829,147.696323 C430.668846,147.133157 431.654229,146.510261 432.66517,145.91012 C437.23144,155.481098 440.369331,167.281987 439.219244,180.362799 C439.091457,181.804846 440.159192,183.076236 441.59893,183.204228 C441.678442,183.212761 441.755115,183.212761 441.831787,183.212761 C443.172135,183.212761 444.316543,182.185978 444.435811,180.823572 C445.676769,166.698911 442.374174,153.75178 437.177485,143.040248 C440.017206,141.103298 442.72062,139.046889 445.225253,136.834044 C458.040911,152.944007 469.706483,175.476338 472.384339,203.89347 C472.512127,205.253033 473.653694,206.271283 474.988363,206.271283 C475.070715,206.271283 475.153067,206.268438 475.235418,206.257061 C476.675157,206.123381 477.734372,204.843458 477.595226,203.404255 C474.854896,174.310186 463.158088,150.520686 449.200862,133.099514 C452.724955,129.529951 455.791853,125.664584 458.46119,121.611495 C474.91169,135.329424 491.600727,155.859387 498.197398,183.07908 C498.487049,184.279363 499.560464,185.084293 500.738948,185.084293 C500.943407,185.084293 501.150707,185.061538 501.358007,185.010342 C502.763668,184.669029 503.624103,183.249736 503.283337,181.844666 C496.473687,153.740403 479.469442,131.876476 461.283872,116.952575 C463.373906,113.186758 465.117495,109.284415 466.455003,105.268302 C480.312839,111.719113 494.241667,121.389641 502.451299,135.104726 C502.942571,135.923877 503.808685,136.37896 504.697518,136.37896 C505.154713,136.37896 505.620427,136.259501 506.043545,136.006361 C507.281663,135.261161 507.684904,133.651303 506.940897,132.408355 C498.163321,117.746128 483.371217,107.128456 467.948696,100.063282 C470.223312,90.7283776 470.464688,80.972521 468.323539,71.3162139 C464.921554,55.9742049 446.381019,52.319314 428.448185,48.7810383 C419.020313,46.9208837 409.274393,44.9981551 402.052984,41.5736503 C395.263212,38.3510889 389.60081,33.3792996 383.60616,28.1145501 C367.198255,13.7054627 346.786345,-4.2305233 290.46333,0.894856787 C169.903,11.8737509 110.907808,153.589657 83.2858476,261.90242 C80.0798032,262.226667 76.8283233,262.403012 73.5541257,262.403012 C48.3942028,262.403012 24.6541401,252.558983 11.5914262,236.713537 C9.29125266,233.920461 5.16513889,233.525107 2.37937316,235.831813 C-0.409232289,238.135674 -0.803953427,242.268403 1.49905983,245.061479 C17.2169123,264.129486 44.1516605,275.512266 73.5541257,275.512266 C100.014641,275.512266 124.475992,266.291133 140.563008,250.550926 C156.647185,266.293977 181.111376,275.512266 207.571891,275.512266 C234.032406,275.512266 258.493758,266.293977 274.580774,250.550926 C290.66495,266.291133 315.129142,275.512266 341.589656,275.512266 C368.047332,275.512266 392.511523,266.291133 408.595699,250.550926 C424.682716,266.291133 449.146907,275.512266 475.607422,275.512266 C505.007047,275.512266 531.944635,264.129486 547.659648,245.061479 C549.959822,242.268403 549.56794,238.135674 546.779335,235.831813 L546.779335,235.831813 Z" id="Fill-49" fill="#000000"></path>
                </g>
            </g>
        </g>
    </g>
</svg>