<?xml version="1.0" encoding="UTF-8"?>
<svg width="500px" height="500px" viewBox="0 0 500 500" version="1.1" xmlns="http://www.w3.org/2000/svg" xmlns:xlink="http://www.w3.org/1999/xlink">
    <title>kala</title>
    <defs>
        <path d="M188.118812,376.237624 C292.013963,376.237624 376.237624,305.782079 376.237624,201.886928 C376.237624,185.018788 399.275362,234.057971 392.391304,144.565217 C386.063207,62.2999582 275.145823,0 188.118812,0 C84.2236609,0 0,84.2236609 0,188.118812 C0,292.013963 84.2236609,376.237624 188.118812,376.237624 Z" id="path-1"></path>
    </defs>
    <g id="kala" stroke="none" stroke-width="1" fill="none" fill-rule="evenodd">
        <rect fill="#FFFFFF" x="0" y="0" width="500" height="500"></rect>
        <g id="编组" transform="translate(51.000000, 60.000000)">
            <mask id="mask-2" fill="white">
                <use xlink:href="#path-1"></use>
            </mask>
            <use id="椭圆形" fill-opacity="0" fill="#D8D8D8" xlink:href="#path-1"></use>
            <g mask="url(#mask-2)">
                <g transform="translate(-16.971588, 47.029703)">
                    <path d="M380.295313,248.593139 C359.135236,248.593139 339.575959,241.23173 326.712794,228.663747 C313.851899,241.23173 294.290351,248.593139 273.134815,248.593139 C251.977009,248.593139 232.415461,241.23173 219.554567,228.663747 C206.693672,241.23173 187.132124,248.593139 165.974318,248.593139 C144.816511,248.593139 125.254963,241.23173 112.394069,228.663747 C99.5309036,241.23173 79.9716264,248.593139 58.81382,248.593139 C35.3036323,248.593139 13.7643587,239.506045 1.19864704,224.281416 C-0.642840516,222.051649 -0.32722181,218.754682 1.90254487,216.913195 C4.13004092,215.071707 7.42927818,215.387326 9.27076573,217.617093 C19.7134307,230.269088 38.6959658,238.127767 58.81382,238.127767 C78.9316741,238.127767 97.9164799,230.269088 108.356874,217.617093 C109.351414,216.413654 110.83187,215.716568 112.394069,215.716568 C113.956268,215.716568 115.436724,216.413654 116.431264,217.617093 C126.871658,230.269088 145.856464,238.127767 165.974318,238.127767 C186.092172,238.127767 205.076978,230.269088 215.517372,217.617093 C217.506451,215.207946 221.600412,215.207946 223.589491,217.617093 C234.032156,230.269088 253.016961,238.127767 273.134815,238.127767 C293.25267,238.127767 312.235205,230.269088 322.67787,217.617093 C324.666949,215.207946 328.760909,215.207946 330.749988,217.617093 C341.351598,230.459822 359.870923,238.127767 380.295313,238.127767 C400.413167,238.127767 419.395703,230.269088 429.838367,217.617093 C431.679855,215.389597 434.97228,215.073978 437.204318,216.913195 C439.434084,218.754682 439.747432,222.051649 437.908216,224.281416 C425.344775,239.506045 403.805501,248.593139 380.295313,248.593139" id="Fill-50" fill="#000000"></path>
                    <path d="M223.589491,188.972992 C221.602682,186.563845 217.50418,186.563845 215.517372,188.972992 C205.076978,201.622717 186.092172,209.481396 165.974318,209.481396 C145.856464,209.481396 126.871658,201.622717 116.431264,188.972992 C115.436724,187.769554 113.956268,187.072468 112.394069,187.072468 C110.83187,187.072468 109.351414,187.769554 108.359145,188.972992 C101.340602,197.474261 90.4551628,203.795718 77.9711942,207.038189 C87.5646405,170.705708 101.892367,129.246126 122.879876,93.712909 C152.927231,42.8438021 190.045353,15.0602734 233.201102,11.1388813 C273.761512,7.45817683 287.012956,19.0747617 299.830708,30.3144206 C304.953268,34.8057429 310.250667,39.4514686 317.001274,42.6485272 C323.951698,45.9409525 332.398472,47.6030597 340.565957,49.2129421 C349.537249,50.9794986 358.753769,52.7937385 362.557088,56.4017826 C359.455396,55.1529316 355.992673,54.4467631 352.330134,54.4467631 C349.439611,54.4467631 347.096313,56.7900617 347.096313,59.6805841 C347.096313,62.5711065 349.439611,64.9121344 352.330134,64.9121344 C358.15205,64.9121344 363.242821,67.7595147 365.043437,71.5878107 C364.904928,73.0818906 364.66424,74.5464522 364.364516,75.9883074 C358.928608,74.1536318 353.615315,72.8480148 348.797021,72.0601034 C347.65489,71.8580166 346.580878,72.6481987 346.394685,73.7903297 C346.208493,74.93019 346.982781,76.0064725 348.122641,76.1926649 C352.286991,76.8715857 357.577578,78.1658494 363.263256,80.1254102 C362.488969,82.5345573 361.505782,84.8506082 360.338674,87.0690217 C355.599853,83.9219172 350.906443,81.3333897 346.505947,79.4010766 C345.445559,78.9333251 344.212602,79.4169711 343.747121,80.4750884 C343.28164,81.5332058 343.763016,82.768433 344.821133,83.2339138 C348.656241,84.9164567 353.270178,87.443677 358.172486,90.76335 C356.401388,93.4881158 354.373708,96.0312305 352.137129,98.356364 C346.985051,93.1679558 341.699006,88.9763578 336.721767,85.9291613 C335.73858,85.3297129 334.451129,85.636249 333.842598,86.621706 C333.240878,87.6071629 333.549685,88.8946148 334.535142,89.5008752 C338.704034,92.0508018 343.799346,96.047125 349.015002,101.344524 C347.473239,102.713719 345.87698,103.9989 344.221685,105.170549 C341.789831,101.766863 339.192221,98.8536338 336.655918,96.5534773 C335.797617,95.7769191 334.473835,95.8382263 333.697277,96.6965275 C332.920719,97.5525581 332.986567,98.8763402 333.842598,99.6528984 C335.886172,101.50801 338.283966,104.17828 340.640888,107.4866 C339.952885,107.897586 339.264882,108.317654 338.565525,108.692309 C322.087504,117.563692 297.387502,119.723069 277.49217,99.1647112 C275.482655,97.0893479 272.167524,97.032582 270.09216,99.0443674 C268.014526,101.053882 267.960031,104.366743 269.969546,106.444377 C283.350417,120.270293 298.538715,125.556339 312.800594,125.672141 C301.027335,142.586125 301.342953,168.771124 305.56407,202.119987 C296.097779,206.817937 284.812708,209.481396 273.134815,209.481396 C253.016961,209.481396 234.032156,201.622717 223.589491,188.972992 Z" id="路径" fill="#E3C99E"></path>
                    <path d="M380.295313,277.24178 C359.137507,277.24178 339.57823,269.878101 326.712794,257.310118 C313.849629,269.878101 294.290351,277.24178 273.134815,277.24178 C251.977009,277.24178 232.417732,269.878101 219.554567,257.310118 C206.691401,269.878101 187.129854,277.24178 165.974318,277.24178 C144.816511,277.24178 125.257234,269.878101 112.394069,257.310118 C99.5309036,269.878101 79.9693558,277.24178 58.81382,277.24178 C35.305903,277.24178 13.7666293,268.152416 1.19864704,252.927787 C-0.642840516,250.69802 -0.32722181,247.401053 1.90254487,245.559566 C4.13004092,243.718078 7.42927818,244.033697 9.26849509,246.263464 C19.7134307,258.91546 38.6982364,266.774138 58.81382,266.774138 C78.9294035,266.774138 97.9142092,258.91546 108.359145,246.263464 C109.351414,245.060026 110.83187,244.36294 112.394069,244.36294 C113.956268,244.36294 115.436724,245.060026 116.431264,246.263464 C126.873928,258.91546 145.856464,266.774138 165.974318,266.774138 C186.089901,266.774138 205.074707,258.91546 215.517372,246.263464 C217.50418,243.854317 221.602682,243.854317 223.589491,246.263464 C234.032156,258.91546 253.016961,266.774138 273.134815,266.774138 C293.250399,266.774138 312.235205,258.91546 322.67787,246.263464 C324.664678,243.854317 328.76318,243.854317 330.749988,246.263464 C341.192653,258.91546 360.17973,266.774138 380.295313,266.774138 C400.410897,266.774138 419.393432,258.91546 429.838367,246.263464 C431.679855,244.033697 434.976822,243.720349 437.204318,245.559566 C439.434084,247.401053 439.747432,250.69802 437.908216,252.927787 C425.342504,268.152416 403.80323,277.24178 380.295313,277.24178" id="Fill-36" fill="#000000"></path>
                    <path d="M274.533529,43.6635024 C279.817304,56.4676311 273.72064,71.1291417 260.918782,76.4106461 C248.114654,81.6944211 233.453143,75.5977577 228.171638,62.7958997 C222.887863,49.991771 228.984527,35.3302604 241.786385,30.0464853 C254.590514,24.764981 269.252024,30.8616444 274.533529,43.6635024" id="Fill-37" fill="#000000"></path>
                    <path d="M264.93327,39.9305733 C266.143521,42.8619672 264.747078,46.220241 261.815684,47.4304912 C258.88202,48.6407413 255.523746,47.2442988 254.315766,44.3106343 C253.105516,41.3792404 254.501959,38.0209666 257.433353,36.8107164 C260.367017,35.6004663 263.725291,36.9969088 264.93327,39.9305733" id="Fill-38" fill="#FFFFFF"></path>
                    <path d="M271.025393,51.3972961 C271.593052,52.7710321 270.939108,54.346855 269.563102,54.9145146 C268.189366,55.4799035 266.615813,54.8259597 266.048154,53.4522236 C265.480494,52.0762169 266.134438,50.5026646 267.510445,49.9350051 C268.884181,49.3673455 270.457733,50.02356 271.025393,51.3972961" id="Fill-39" fill="#FFFFFF"></path>
                    <path d="M136.571824,152.059227 C136.571824,157.792589 131.921557,162.440585 126.188196,162.440585 C120.454834,162.440585 115.806838,157.792589 115.806838,152.059227 C115.806838,146.325866 120.454834,141.675599 126.188196,141.675599 C131.921557,141.675599 136.571824,146.325866 136.571824,152.059227" id="Fill-40" fill="#BFA374"></path>
                    <path d="M137.157649,177.608448 C137.157649,181.559358 133.956049,184.760958 130.007409,184.760958 C126.056499,184.760958 122.854899,181.559358 122.854899,177.608448 C122.854899,173.659808 126.056499,170.455938 130.007409,170.455938 C133.956049,170.455938 137.157649,173.659808 137.157649,177.608448" id="Fill-41" fill="#BFA374"></path>
                    <path d="M295.06691,143.732797 C295.06691,147.000246 292.417075,149.65008 289.149627,149.65008 C285.879908,149.65008 283.230073,147.000246 283.230073,143.732797 C283.230073,140.465349 285.879908,137.815514 289.149627,137.815514 C292.417075,137.815514 295.06691,140.465349 295.06691,143.732797" id="Fill-42" fill="#BFA374"></path>
                    <path d="M113.279618,168.798372 C113.279618,171.564009 111.038498,173.802858 108.275131,173.802858 C105.509494,173.802858 103.268374,171.564009 103.268374,168.798372 C103.268374,166.035005 105.509494,163.793885 108.275131,163.793885 C111.038498,163.793885 113.279618,166.035005 113.279618,168.798372" id="Fill-43" fill="#BFA374"></path>
                    <path d="M296.719934,157.79713 C296.719934,159.615911 295.24629,161.089555 293.429779,161.089555 C291.610998,161.089555 290.137354,159.615911 290.137354,157.79713 C290.137354,155.98062 291.610998,154.506975 293.429779,154.506975 C295.24629,154.506975 296.719934,155.98062 296.719934,157.79713" id="Fill-44" fill="#BFA374"></path>
                    <path d="M323.047984,101.966679 C323.047984,103.78546 321.57434,105.259104 319.755558,105.259104 C317.939048,105.259104 316.465404,103.78546 316.465404,101.966679 C316.465404,100.150168 317.939048,98.676524 319.755558,98.676524 C321.57434,98.676524 323.047984,100.150168 323.047984,101.966679" id="Fill-45" fill="#BFA374"></path>
                    <path d="M328.992514,93.5357992 C328.992514,95.3545804 327.51887,96.8282245 325.70236,96.8282245 C323.883579,96.8282245 322.409934,95.3545804 322.409934,93.5357992 C322.409934,91.7192887 323.883579,90.2456445 325.70236,90.2456445 C327.51887,90.2456445 328.992514,91.7192887 328.992514,93.5357992" id="Fill-46" fill="#BFA374"></path>
                    <path d="M314.399123,92.2369942 C314.399123,94.0557753 312.925479,95.5294195 311.106698,95.5294195 C309.290187,95.5294195 307.816543,94.0557753 307.816543,92.2369942 C307.816543,90.4204836 309.290187,88.9468395 311.106698,88.9468395 C312.925479,88.9468395 314.399123,90.4204836 314.399123,92.2369942" id="Fill-47" fill="#BFA374"></path>
                    <path d="M179.570899,75.6613355 C176.294368,76.7512419 172.856622,75.3457168 171.916578,72.5233136 C171.485157,71.2313205 171.641831,69.8030891 172.357082,68.5065547 C173.144993,67.0715113 174.496023,65.9747931 176.15813,65.4207574 C178.89879,64.5079608 180.381517,61.544778 179.46872,58.8018471 C178.553653,56.0589162 175.583658,54.5784601 172.84981,55.4912567 C168.680918,56.8808872 165.249984,59.7101024 163.185974,63.458926 C161.047033,67.3439879 160.622424,71.7399434 161.987077,75.833904 C164.171431,82.3869658 170.474723,86.4945502 177.343403,86.4945502 C179.171267,86.4945502 181.040002,86.2039086 182.88149,85.5908362 C185.62215,84.6757691 187.104877,81.7125863 186.189809,78.971926 C185.277013,76.2289951 182.311559,74.7462683 179.570899,75.6613355" id="Fill-48" fill="#000000"></path>
                    <path d="M223.589491,188.972992 C221.602682,186.563845 217.50418,186.563845 215.517372,188.972992 C205.076978,201.622717 186.092172,209.481396 165.974318,209.481396 C145.856464,209.481396 126.871658,201.622717 116.431264,188.972992 C115.436724,187.769554 113.956268,187.072468 112.394069,187.072468 C110.83187,187.072468 109.351414,187.769554 108.359145,188.972992 C101.340602,197.474261 90.4551628,203.795718 77.9711942,207.038189 C87.5646405,170.705708 101.892367,129.246126 122.879876,93.712909 C152.927231,42.8438021 190.045353,15.0602734 233.201102,11.1388813 C273.761512,7.45817683 287.012956,19.0747617 299.830708,30.3144206 C304.953268,34.8057429 310.250667,39.4514686 317.001274,42.6485272 C323.951698,45.9409525 332.398472,47.6030597 340.565957,49.2129421 C349.537249,50.9794986 358.753769,52.7937385 362.557088,56.4017826 C359.455396,55.1529316 355.992673,54.4467631 352.330134,54.4467631 C349.439611,54.4467631 347.096313,56.7900617 347.096313,59.6805841 C347.096313,62.5711065 349.439611,64.9121344 352.330134,64.9121344 C358.15205,64.9121344 363.242821,67.7595147 365.043437,71.5878107 C364.904928,73.0818906 364.66424,74.5464522 364.364516,75.9883074 C358.928608,74.1536318 353.615315,72.8480148 348.797021,72.0601034 C347.65489,71.8580166 346.580878,72.6481987 346.394685,73.7903297 C346.208493,74.93019 346.982781,76.0064725 348.122641,76.1926649 C352.286991,76.8715857 357.577578,78.1658494 363.263256,80.1254102 C362.488969,82.5345573 361.505782,84.8506082 360.338674,87.0690217 C355.599853,83.9219172 350.906443,81.3333897 346.505947,79.4010766 C345.445559,78.9333251 344.212602,79.4169711 343.747121,80.4750884 C343.28164,81.5332058 343.763016,82.768433 344.821133,83.2339138 C348.656241,84.9164567 353.270178,87.443677 358.172486,90.76335 C356.401388,93.4881158 354.373708,96.0312305 352.137129,98.356364 C346.985051,93.1679558 341.699006,88.9763578 336.721767,85.9291613 C335.73858,85.3297129 334.451129,85.636249 333.842598,86.621706 C333.240878,87.6071629 333.549685,88.8946148 334.535142,89.5008752 C338.704034,92.0508018 343.799346,96.047125 349.015002,101.344524 C347.473239,102.713719 345.87698,103.9989 344.221685,105.170549 C341.789831,101.766863 339.192221,98.8536338 336.655918,96.5534773 C335.797617,95.7769191 334.473835,95.8382263 333.697277,96.6965275 C332.920719,97.5525581 332.986567,98.8763402 333.842598,99.6528984 C335.886172,101.50801 338.283966,104.17828 340.640888,107.4866 C339.952885,107.897586 339.264882,108.317654 338.565525,108.692309 C322.087504,117.563692 297.387502,119.723069 277.49217,99.1647112 C275.482655,97.0893479 272.167524,97.032582 270.09216,99.0443674 C268.014526,101.053882 267.960031,104.366743 269.969546,106.444377 C283.350417,120.270293 298.538715,125.556339 312.800594,125.672141 C301.027335,142.586125 301.342953,168.771124 305.56407,202.119987 C296.097779,206.817937 284.812708,209.481396 273.134815,209.481396 C253.016961,209.481396 234.032156,201.622717 223.589491,188.972992 Z M437.204318,188.269094 C434.976822,186.432148 431.679855,186.743225 429.838367,188.972992 C419.395703,201.622717 400.413167,209.481396 380.295313,209.481396 C359.870923,209.481396 341.351598,201.815722 330.749988,188.972992 C328.76318,186.563845 324.664678,186.563845 322.67787,188.972992 C320.568447,191.52746 318.095722,193.877571 315.35052,196.016512 C311.192982,160.521896 312.410044,134.934074 330.093774,123.31976 C334.900715,121.971001 339.428367,120.11589 343.526869,117.908829 C344.362464,117.459243 345.150376,116.961973 345.958723,116.482869 C349.609909,124.123566 352.118964,133.544444 351.199356,143.987109 C351.097177,145.138322 351.950937,146.153298 353.102151,146.255476 C353.165728,146.262288 353.227036,146.262288 353.288343,146.262288 C354.360084,146.262288 355.275151,145.442588 355.370518,144.354952 C356.362787,133.078963 353.722035,122.743018 349.566767,114.191795 C351.837405,112.64549 353.999053,111.003819 356.001755,109.237262 C366.249146,122.098157 375.576927,140.086152 377.718139,162.772098 C377.820318,163.857463 378.733114,164.670352 379.800314,164.670352 C379.866163,164.670352 379.932011,164.668081 379.99786,164.658999 C381.149073,164.552279 381.996021,163.530491 381.88476,162.381549 C379.693594,139.155191 370.340836,120.163573 359.180649,106.255914 C361.998511,103.406263 364.4508,100.320466 366.5852,97.0848067 C379.739007,108.036095 393.083547,124.425561 398.35824,146.155568 C398.589845,147.113777 399.448146,147.756368 400.390461,147.756368 C400.553947,147.756368 400.719704,147.738203 400.88546,147.697331 C402.009426,147.424855 402.697429,146.291806 402.424953,145.170111 C396.979963,122.733935 383.383381,105.27954 368.842214,93.3655013 C370.513404,90.3591764 371.907576,87.2438608 372.977046,84.0377197 C384.057761,89.1875271 395.195241,96.9076969 401.759656,107.856714 C402.152476,108.510658 402.845021,108.87396 403.555731,108.87396 C403.921303,108.87396 404.293688,108.778593 404.632013,108.576506 C405.622011,107.981599 405.944442,106.696418 405.349535,105.704149 C398.330992,93.9990094 386.503238,85.5227171 374.171402,79.8824519 C375.990183,72.4302174 376.183188,64.6419285 374.471126,56.9331119 C371.750902,44.6852896 356.925905,41.7675196 342.586825,38.9428457 C335.048306,37.4578483 327.255476,35.9228969 321.481243,33.1890486 C316.052148,30.6164155 311.524495,26.64734 306.731178,22.4443888 C293.611431,10.9413358 277.290083,-3.37730851 232.254246,0.714381469 C135.854302,9.4790448 88.6817944,122.613592 66.595297,209.081764 C64.0317465,209.340616 61.4318658,209.481396 58.81382,209.481396 C38.6959658,209.481396 19.7134307,201.622717 9.26849509,188.972992 C7.42927818,186.743225 4.13004092,186.427607 1.90254487,188.269094 C-0.32722181,190.108311 -0.642840516,193.407548 1.19864704,195.637315 C13.7666293,210.859673 35.3036323,219.946767 58.81382,219.946767 C79.9716264,219.946767 99.5309036,212.585358 112.394069,200.019647 C125.254963,212.587629 144.816511,219.946767 165.974318,219.946767 C187.132124,219.946767 206.691401,212.587629 219.554567,200.019647 C232.415461,212.585358 251.977009,219.946767 273.134815,219.946767 C294.290351,219.946767 313.851899,212.585358 326.712794,200.019647 C339.575959,212.585358 359.137507,219.946767 380.295313,219.946767 C403.80323,219.946767 425.342504,210.859673 437.908216,195.637315 C439.747432,193.407548 439.434084,190.108311 437.204318,188.269094 L437.204318,188.269094 Z" id="Fill-49" fill="#000000"></path>
                </g>
            </g>
        </g>
    </g>
</svg>