<?xml version="1.0" encoding="UTF-8"?>
<svg width="500px" height="500px" viewBox="0 0 500 500" version="1.1" xmlns="http://www.w3.org/2000/svg" xmlns:xlink="http://www.w3.org/1999/xlink">
    <title>PACB</title>
    <g id="PACB" stroke="none" stroke-width="1" fill="none" fill-rule="evenodd">
        <rect fill="#FFFFFF" x="0" y="0" width="500" height="500"></rect>
        <g id="PACB-" transform="translate(90.000000, 87.000000)" fill="#C6223A" fill-rule="nonzero">
            <g id="编组">
                <path d="M57.1803279,154.386885 C57.1803279,150.92459 60.0131148,148.091803 63.4754098,148.091803 C66.9377049,148.091803 69.7704918,150.92459 69.7704918,154.386885 L69.7704918,159.213115 C99.8819672,163.619672 125.796721,142.216393 142.531148,123.016393 C131.147541,106.229508 111.947541,95.2131148 90.2295082,95.2131148 C76.642623,95.2131148 63.6327869,99.4622951 52.7213115,107.540984 C49.9409836,109.586885 46.0065574,109.009836 43.9606557,106.229508 C41.9147541,103.44918 42.4918033,99.5147541 45.2721311,97.4688525 C58.3344262,87.8163934 73.9147541,82.6754098 90.2295082,82.6754098 C114.937705,82.6754098 136.865574,94.6360656 150.714754,112.996721 C158.111475,103.186885 162.360656,95.6852459 162.465574,95.4229508 L163.147541,94.2163934 L164.24918,93.4295082 C170.072131,89.1278689 176.419672,85.7704918 183.081967,83.357377 L183.081967,6.87213115 C175.47541,5.7704918 167.659016,5.14098361 159.737705,5.14098361 C72.1836066,5.19344262 1.36393443,76.0655738 1.36393443,163.462295 C1.36393443,211.829508 23.0819672,255.055738 57.2327869,284.118033 L57.2327869,154.386885 L57.1803279,154.386885 Z" id="路径"></path>
                <path d="M69.7704918,171.908197 L69.7704918,219.068852 C70.7147541,218.911475 71.6590164,218.859016 72.6032787,219.17377 C78.2688525,220.8 84.1967213,221.639344 90.1770492,221.639344 C125.009836,221.639344 153.390164,193.311475 153.390164,158.42623 C153.390164,150.137705 151.763934,142.216393 148.82623,134.977049 C130.413115,155.016393 102.872131,175.895082 69.7704918,171.908197 Z" id="路径"></path>
                <path d="M195.514754,9.2852459 L195.514754,79.842623 C199.97377,79.0557377 204.485246,78.5836066 209.101639,78.5836066 C250.859016,78.5836066 284.852459,112.577049 284.852459,154.334426 C284.852459,196.091803 250.859016,230.085246 209.101639,230.085246 C201.967213,230.085246 194.885246,229.088525 188.065574,227.095082 C184.708197,226.15082 182.819672,222.636066 183.763934,219.331148 C184.708197,216.02623 188.222951,214.085246 191.527869,215.029508 C197.193443,216.655738 203.121311,217.495082 209.101639,217.495082 C243.934426,217.495082 272.314754,189.167213 272.314754,154.281967 C272.314754,119.396721 243.986885,91.0688525 209.101639,91.0688525 C204.485246,91.0688525 199.921311,91.5934426 195.514754,92.5377049 L195.514754,185.704918 C195.514754,189.167213 192.681967,192 189.219672,192 C185.757377,192 182.92459,189.167213 182.92459,185.704918 L182.92459,96.8393443 C179.357377,98.4655738 175.895082,100.406557 172.590164,102.714754 C170.754098,105.914754 165.560656,114.413115 157.691803,124.380328 C162.885246,134.609836 165.822951,146.15082 165.822951,158.37377 C165.822951,200.131148 131.829508,234.12459 90.0721311,234.12459 C83.147541,234.12459 76.2754098,233.180328 69.6655738,231.344262 L69.6655738,293.770492 C95.2131148,311.396721 126.163934,321.783607 159.527869,321.783607 C246.92459,321.783607 317.796879,250.911475 317.796879,163.514754 C317.901639,88.3934426 265.652459,25.547541 195.514754,9.2852459 Z" id="路径"></path>
            </g>
        </g>
    </g>
</svg>