<?xml version="1.0" encoding="UTF-8"?>
<svg width="500px" height="500px" viewBox="0 0 500 500" version="1.1" xmlns="http://www.w3.org/2000/svg" xmlns:xlink="http://www.w3.org/1999/xlink">
    <title>PACB</title>
    <g id="PACB" stroke="none" stroke-width="1" fill="none" fill-rule="evenodd">
        <rect fill="#FFFFFF" x="0" y="0" width="500" height="500"></rect>
        <g id="PACB-" transform="translate(15.000000, 15.000000)" fill="#C6223A" fill-rule="nonzero">
            <g id="编组" transform="translate(0.129389, 0.000000)">
                <path d="M82.7621501,221.358061 C82.7621501,216.223172 86.9565637,212.021898 92.0830692,212.021898 C97.2095747,212.021898 101.403988,216.223172 101.403988,221.358061 L101.403988,228.515786 C145.989051,235.0511 184.360168,203.308146 209.138278,174.832849 C192.28295,149.936414 163.854146,133.598129 131.696975,133.598129 C111.579325,133.598129 92.3160922,139.900039 76.1598324,151.881448 C72.0430932,154.915701 66.2175187,154.059886 63.18822,149.936414 C60.1589213,145.812942 61.0133389,139.977841 65.1300782,136.943588 C84.4709853,122.628138 107.54026,115.003605 131.696975,115.003605 C168.281583,115.003605 200.749451,132.742314 221.255473,159.97279 C232.207553,145.423936 238.499173,134.298341 238.654522,133.909335 L239.664288,132.119903 L241.295449,130.952883 C249.917299,124.573172 259.315893,119.593885 269.180532,116.015022 L269.180532,2.5806419 C257.917755,0.946813373 246.34428,0.0131970746 234.615457,0.0131970746 C104.977007,0.0909984328 0.116667461,105.200633 0.116667461,234.817696 C0.116667461,306.550549 32.2738383,370.658868 82.8398244,413.76082 L82.8398244,221.358061 L82.7621501,221.358061 Z" id="路径"></path>
                <path d="M101.403988,247.343715 L101.403988,317.287136 C102.802126,317.053732 104.200264,316.975931 105.598402,317.442739 C113.987229,319.854581 122.764428,321.099403 131.619301,321.099403 C183.195053,321.099403 225.216864,279.086669 225.216864,227.348766 C225.216864,215.056151 222.80896,203.308146 218.459197,192.571559 C191.195509,222.291678 150.416488,253.256618 101.403988,247.343715 Z" id="路径"></path>
                <path d="M287.589347,6.15950438 L287.589347,110.802331 C294.191665,109.635311 300.871657,108.935099 307.706998,108.935099 C369.535761,108.935099 419.868724,159.350379 419.868724,221.28026 C419.868724,283.210141 369.535761,333.625421 307.706998,333.625421 C297.143289,333.625421 286.657255,332.147195 276.559593,329.190744 C271.588436,327.790319 268.79216,322.577628 270.190298,317.676143 C271.588436,312.774657 276.792616,309.896007 281.686099,311.296431 C290.074926,313.708273 298.852125,314.953095 307.706998,314.953095 C359.28275,314.953095 401.30456,272.940362 401.30456,221.202459 C401.30456,169.464555 359.360424,127.451822 307.706998,127.451822 C300.871657,127.451822 294.113991,128.229835 287.589347,129.63026 L287.589347,267.805472 C287.589347,272.940362 283.394934,277.141635 278.268428,277.141635 C273.141923,277.141635 268.947509,272.940362 268.947509,267.805472 L268.947509,136.009971 C263.665655,138.421813 258.539149,141.300464 253.645667,144.723723 C250.927065,149.469606 243.237307,162.073426 231.586158,176.855684 C239.275917,192.026949 243.625679,209.143248 243.625679,227.270964 C243.625679,289.200846 193.292716,339.616126 131.463952,339.616126 C121.210941,339.616126 111.035605,338.215701 101.24864,335.492654 L101.24864,428.07627 C139.076036,454.217526 184.903889,469.622195 234.30476,469.622195 C363.710187,469.622195 468.648434,364.51256 468.648434,234.895498 C468.803549,123.483953 391.439921,30.2779254 287.589347,6.15950438 Z" id="路径"></path>
            </g>
        </g>
    </g>
</svg>