<?xml version="1.0" encoding="UTF-8"?>
<svg width="500px" height="500px" viewBox="0 0 500 500" version="1.1" xmlns="http://www.w3.org/2000/svg" xmlns:xlink="http://www.w3.org/1999/xlink">
    <title>TSLA</title>
    <g id="TSLA" stroke="none" stroke-width="1" fill="none" fill-rule="evenodd">
        <rect fill="#FFFFFF" x="0" y="0" width="500" height="500"></rect>
        <g id="tesila-(1)" transform="translate(90.000000, 94.000000)" fill="#CC0200">
            <path d="M302.161069,57.0236116 C301.004878,56.3241326 300.4096,55.8302849 299.721206,55.5708901 C265.532092,42.8139896 229.758342,34.7965857 193.395965,31.739275 C191.332447,31.557477 188.465802,33.0101984 187.039131,34.6319698 C182.368917,39.9257289 178.073384,45.5830839 173.845472,51.2515242 C169.318257,57.3223589 165.01164,63.5622437 160.211728,70.2826738 C158.603259,68.296752 157.537967,67.0130806 156.51369,65.7033588 C148.964084,56.0514355 141.477109,46.3341093 133.836603,36.747589 C130.866312,33.0235007 127.297971,30.8585523 121.954329,31.375679 C93.9446846,34.1015408 66.6367365,39.9129808 40.1075269,49.2789048 C31.9343753,52.1715996 23.9823745,55.6617892 15.0315929,59.2428777 C27.2386653,72.4498393 39.0965525,83.6193327 55.9993349,90.0410154 C57.1405609,80.7526882 61.9665226,74.8747367 69.6979271,71.5142445 C83.554484,65.5082585 98.1365702,65.9760559 112.715885,67.3899789 C114.028378,67.5196763 115.829731,70.1136238 116.141226,71.7869416 C119.449618,89.8852677 122.562909,108.032923 125.611351,126.182796 C130.346414,154.359273 135.003326,182.537967 139.686842,210.714444 C143.969072,236.439973 148.210841,262.165503 152.516905,287.891032 C153.842146,295.778184 155.320918,303.63984 156.734287,311.514245 C158.265159,309.347079 158.706906,307.296863 159.068285,305.24831 C165.102539,271.466578 171.095777,237.671544 177.166611,203.889813 C184.793814,161.430551 192.525773,118.984037 200.155193,76.5353065 C201.852899,67.0912316 201.738167,66.5325352 211.117393,66.3790045 C231.406163,66.0542069 252.25363,65.1058641 261.840705,89.4956213 C279.419133,83.645383 294.066068,74.6929387 302.161069,57.0236116 Z" id="路径"></path>
            <path d="M15.7050216,48.9801574 C23.5384104,45.84525 31.4732291,42.9719543 39.4972841,40.3674759 C73.3139342,29.4900787 108.299523,22.6615675 143.722425,20.0266046 C180.201751,17.1965414 216.304733,19.6369582 251.526438,29.4706795 C269.364815,34.4396408 286.462144,41.9892473 303.923623,48.2806784 C305.532092,48.8654251 308.531205,49.4995012 308.970735,48.8266268 C312.616672,43.3771201 315.80756,37.6305288 319.752799,30.923401 C212.518014,-7.5418468 107.203747,-11.9127591 0.553708015,31.2609467 C3.80999889,37.292983 6.39064405,42.1710453 9.0494402,46.997007 C10.5930606,49.7855005 12.5656801,50.2399956 15.7050216,48.9801574 Z" id="Fill-3"></path>
        </g>
    </g>
</svg>