<?xml version="1.0" encoding="UTF-8"?>
<svg width="500px" height="500px" viewBox="0 0 500 500" version="1.1" xmlns="http://www.w3.org/2000/svg" xmlns:xlink="http://www.w3.org/1999/xlink">
    <title>USD</title>
    <g id="USD" stroke="none" stroke-width="1" fill="none" fill-rule="evenodd">
        <rect fill="#FFFFFF" x="0" y="0" width="500" height="500"></rect>
        <path d="M333.611733,301.60768 C333.611733,319.822156 327.68985,335.50655 315.844523,348.661253 C303.999196,361.815957 288.612068,369.940967 269.68353,373.035502 L269.68353,404.28554 C269.68353,405.953511 269.147982,407.322262 268.076887,408.393357 C267.005792,409.464452 265.635478,410 263.969069,410 L239.861618,410 C238.314351,410 236.974896,409.435546 235.844035,408.303123 C234.713565,407.172653 234.147158,405.83437 234.147158,404.28554 L234.147158,373.035502 C226.290508,371.964407 218.700655,370.119483 211.379552,367.499557 C204.058449,364.881195 198.017426,362.232364 193.255311,359.554626 C188.492805,356.874935 184.087722,354.018682 180.041233,350.981959 C175.99279,347.94719 173.225209,345.714765 171.737316,344.286639 C170.249424,342.856559 169.207235,341.785464 168.612312,341.0714 C166.588872,338.572178 166.470122,336.130769 168.255281,333.750298 L186.648272,309.642846 C187.481476,308.45261 188.850228,307.738547 190.754136,307.500656 C192.541248,307.262375 193.969375,307.797922 195.04047,309.107299 L195.397501,309.46433 C208.849862,321.250282 223.315114,328.690526 238.790523,331.786623 C243.195607,332.738578 247.601081,333.21475 252.004602,333.21475 C261.648363,333.21475 270.130796,330.655763 277.451898,325.536616 C284.773001,320.417078 288.433552,313.155351 288.433552,303.74987 C288.433552,300.417444 287.540973,297.261972 285.755815,294.286577 C283.968703,291.309621 281.976123,288.810008 279.772604,286.785396 C277.570649,284.761956 274.088613,282.529532 269.326498,280.089685 C264.564383,277.649838 260.636643,275.743977 257.540546,274.375225 C254.446011,273.006473 249.683896,271.071705 243.255372,268.572484 C238.612007,266.666622 234.951456,265.178729 232.273718,264.107634 C229.594027,263.036539 225.933476,261.458803 221.290111,259.375988 C216.648699,257.29161 212.928382,255.446686 210.129941,253.840044 C207.333063,252.231448 203.970168,250.119727 200.040866,247.499802 C196.111565,244.881439 192.927186,242.351748 190.487339,239.910339 C188.047492,237.470102 185.458036,234.554473 182.71897,231.160719 C179.981467,227.768528 177.868183,224.315789 176.380681,220.802894 C174.891226,217.291952 173.641615,213.333744 172.629895,208.928661 C171.618175,204.523577 171.111534,199.881775 171.111534,195.000519 C171.111534,178.571202 176.945135,164.166887 188.611946,151.786013 C200.278757,139.405138 215.456901,131.429347 234.147158,127.857077 L234.147158,95.7144601 C234.147158,94.1671926 234.713565,92.8273472 235.844035,91.6968771 C236.974896,90.5660163 238.314351,90 239.861618,90 L263.969069,90 C265.635478,90 267.005792,90.5355475 268.076887,91.6066426 C269.147982,92.6777376 269.68353,94.0480518 269.68353,95.7144601 L269.68353,127.143014 C276.469085,127.857077 283.047218,129.225829 289.416366,131.250832 C295.785124,133.273881 300.964036,135.268415 304.951151,137.232089 C308.939827,139.195763 312.71952,141.428188 316.29179,143.929363 C319.862106,146.428585 322.183203,148.154368 323.255861,149.106322 C324.326956,150.06023 325.219535,150.893434 325.933598,151.607497 C327.957038,153.749687 328.254304,156.012581 326.826177,158.393052 L312.362488,184.464178 C311.410143,186.249336 310.041782,187.203244 308.25467,187.322384 C306.588653,187.679416 304.981619,187.262619 303.43318,186.07082 C303.075758,185.713789 302.213647,184.999725 300.845286,183.92863 C299.474972,182.857535 297.153876,181.279799 293.879262,179.196984 C290.606602,177.112606 287.124566,175.208307 283.433156,173.482524 C279.743698,171.75674 275.308146,170.20791 270.130796,168.839159 C264.951883,167.470407 259.862814,166.78525 254.862808,166.78525 C243.553029,166.78525 234.325674,169.3458 227.183087,174.464947 C220.0405,179.582922 216.470183,186.189961 216.470183,194.286455 C216.470183,197.38099 216.975262,200.238806 217.986591,202.857169 C218.998311,205.475532 220.754564,207.945847 223.255738,210.268506 C225.75496,212.589212 228.106526,214.552886 230.308091,216.161482 C232.511609,217.768125 235.844035,219.613049 240.308884,221.697426 C244.773733,223.780241 248.374519,225.386884 251.112022,226.517354 C253.851088,227.649777 258.016718,229.285326 263.612038,231.42947 C269.92142,233.809551 274.743301,235.684943 278.075727,237.053695 C281.410106,238.422447 285.934331,240.506824 291.648791,243.303703 C297.36286,246.100581 301.856616,248.630662 305.129667,250.893556 C308.40428,253.154887 312.093738,256.131843 316.201555,259.821301 C320.309373,263.512321 323.463283,267.292013 325.666801,271.160377 C327.868366,275.029913 329.743759,279.583044 331.291027,284.821332 C332.838294,290.059619 333.611733,295.655329 333.611733,301.60768 Z" id="Fill-1" fill="#000000"></path>
    </g>
</svg>