<?xml version="1.0" encoding="UTF-8"?>
<svg width="500px" height="500px" viewBox="0 0 500 500" version="1.1" xmlns="http://www.w3.org/2000/svg" xmlns:xlink="http://www.w3.org/1999/xlink">
    <title>bnb</title>
    <defs>
        <polygon id="path-1" points="0.0320121951 0.341463415 349.658003 0.341463415 349.658003 349.999466 0.0320121951 349.999466"></polygon>
    </defs>
    <g id="bnb" stroke="none" stroke-width="1" fill="none" fill-rule="evenodd">
        <rect fill="#FFFFFF" x="0" y="0" width="500" height="500"></rect>
        <g id="BNB-(1)" transform="translate(75.000000, 75.000000)">
            <g id="编组">
                <mask id="mask-2" fill="white">
                    <use xlink:href="#path-1"></use>
                </mask>
                <g id="Clip-2"></g>
                <path d="M106.994893,147.197409 L174.829268,79.3651677 L242.83811,147.372409 L282.349162,107.861357 L174.829268,0.341463415 L67.4838415,107.686357 L106.994893,147.197409 L106.994893,147.197409 Z M0,175.170732 L39.5110518,135.65968 L79.0237043,175.170732 L39.5110518,214.68125 L0,175.170732 Z M106.994893,203.143521 L174.829268,270.977896 L242.83811,202.968521 L282.349162,242.479573 L174.829268,349.999466 L67.4838415,242.654573 L106.994893,203.143521 L106.994893,203.143521 Z M270.636433,175.170732 L310.147485,135.65968 L349.658003,175.170732 L310.147485,214.68125 L270.636433,175.170732 Z" id="Fill-1" fill="#F3BA2F" mask="url(#mask-2)"></path>
            </g>
            <polyline id="Fill-3" fill="#F3BA2F" points="214.86532 175.170732 174.829268 135.13468 134.968216 174.995732 175.004268 215.031784 214.86532 175.170732"></polyline>
        </g>
    </g>
</svg>