<?xml version="1.0" encoding="UTF-8"?>
<svg width="500px" height="500px" viewBox="0 0 500 500" version="1.1" xmlns="http://www.w3.org/2000/svg" xmlns:xlink="http://www.w3.org/1999/xlink">
    <title>bnb</title>
    <defs>
        <polygon id="path-1" points="0.0457317073 0.487804878 499.511433 0.487804878 499.511433 499.999238 0.0457317073 499.999238"></polygon>
    </defs>
    <g id="bnb" stroke="none" stroke-width="1" fill="none" fill-rule="evenodd">
        <rect fill="#FFFFFF" x="0" y="0" width="500" height="500"></rect>
        <g id="BNB-(1)">
            <g id="编组">
                <mask id="mask-2" fill="white">
                    <use xlink:href="#path-1"></use>
                </mask>
                <g id="Clip-2"></g>
                <path d="M152.849848,210.282012 L249.756098,113.378811 L346.911585,210.532012 L403.355945,154.087652 L249.756098,0.487804878 L96.4054878,153.837652 L152.849848,210.282012 L152.849848,210.282012 Z M0,250.243902 L56.4443598,193.799543 L112.891006,250.243902 L56.4443598,306.6875 L0,250.243902 Z M152.849848,290.20503 L249.756098,387.11128 L346.911585,289.95503 L403.355945,346.39939 L249.756098,499.999238 L96.4054878,346.64939 L152.849848,290.20503 L152.849848,290.20503 Z M386.623476,250.243902 L443.067835,193.799543 L499.511433,250.243902 L443.067835,306.6875 L386.623476,250.243902 Z" id="Fill-1" fill="#F3BA2F" mask="url(#mask-2)"></path>
            </g>
            <polyline id="Fill-3" fill="#F3BA2F" points="307 250.124848 249.875152 193 193 249.875152 250.124848 307 307 250.124848"></polyline>
        </g>
    </g>
</svg>